<?xml version="1.0" standalone="no"?>
<!DOCTYPE svg PUBLIC "-//W3C//DTD SVG 1.1//EN" "http://www.w3.org/Graphics/SVG/1.1/DTD/svg11.dtd" >
<svg xmlns="http://www.w3.org/2000/svg">
<metadata>Generated by IcoMoon</metadata>
<defs>
<font id="icomoon" horiz-adv-x="1024">
<font-face units-per-em="1024" ascent="960" descent="-64" />
<missing-glyph horiz-adv-x="1024" />
<glyph unicode="&#x20;" horiz-adv-x="512" d="" />
<glyph unicode="&#xe900;" horiz-adv-x="2825" d="M2251.295 569.711c-4.075 78.371 100.002 86.365 121.005 23.198 1.288-4.849 2.028-10.416 2.028-16.156 0-14.089-4.457-27.136-12.039-37.809l0.136 0.202c-11.725-19.057-24.883-35.555-39.788-50.29l-0.025-0.024c38.398-21.693 69.812-51.602 92.636-87.506l0.626-1.053c41.067-57.368-23.198-101.569-74.61-105.488l-8.934-0.94-4.859 7.837c-24.765 39.186-36.208 82.133-77.117 105.645-10.583-13.165-20.037-28.035-27.758-43.903l-0.613-1.395v-56.427c-32.446-9.561-72.415-18.339-104.547-4.389-16.818 6.061-28.836 21.403-29.932 39.688l-0.006 0.124c2.821 55.487 1.097 115.363 0 171.006 0 52.352-1.724 105.018-1.411 157.526 0 15.674 0 57.838 5.643 71.475 21.004 46.239 67.713 41.537 111.758 40.91h20.377c-1.567-53.293-1.881-186.21-1.881-276.494 6.897 10.659 29.311 51.255 28.684 64.735z" />
<glyph unicode="&#xe901;" horiz-adv-x="2825" d="M2516.19 617.047c52.822 24.922 136.993 15.674 195.458 13.010 5.956 0 11.912-1.097 18.025-1.567 96.553-9.405 62.697-147.808-31.349-109.72-6.583 2.665-13.323 4.389-20.063 7.524-21.944 10.345-80.722 28.214-105.018 22.101 2.358-5.327 5.7-9.824 9.831-13.442l0.044-0.038c1.519-1.31 3.212-2.504 5.016-3.524l0.156-0.081c17.398-10.188 52.666-10.972 72.885-13.95 40.755-3.742 76.558-22.388 102.413-50.365l0.097-0.106c15.098-16.621 24.342-38.798 24.342-63.134 0-5.828-0.53-11.533-1.545-17.068l0.088 0.577c-7.367-42.791-34.327-63.951-71.004-81.349-52.979-24.922-136.993-15.674-195.615-13.010-5.956 0-12.226 1.097-18.339 1.881-96.397 9.091-62.697 147.495 31.349 109.72 6.74-2.665 13.166-4.389 19.906-7.524 22.101-10.345 81.036-28.214 105.174-22.101-2.308 5.402-5.659 9.959-9.831 13.599l-0.044 0.038c-1.565 1.376-3.31 2.621-5.174 3.681l-0.155 0.081c-17.085 10.032-52.352 10.815-72.729 13.793-40.82 3.595-76.68 22.342-102.4 50.506l-0.11 0.122c-14.875 16.67-23.965 38.781-23.965 63.015 0 6.038 0.564 11.945 1.643 17.67l-0.092-0.589c7.524 42.791 34.17 63.481 71.318 81.036z" />
<glyph unicode="&#xe902;" horiz-adv-x="2825" d="M1869.47 579.742c43.418 15.674 85.895 34.327 129.313 50.158 4.282 2.242 9.354 3.558 14.734 3.558 17.816 0 32.262-14.429 32.289-32.239v-0.003l0.784-254.864c0-56.427-91.224-55.487-130.88-55.487h-21.944v21.474c0 51.725 0 37.618 0 194.047l-18.339-2.038c-45.612-4.546-57.525 56.427-5.329 75.393z" />
<glyph unicode="&#xe903;" horiz-adv-x="2825" d="M888.104 615.166c13.965 6.448 30.188 11.471 47.162 14.269l1.114 0.152c3.974 0.651 8.554 1.024 13.221 1.024 21.62 0 41.375-7.988 56.474-21.173l-0.101 0.087c23.474-18.354 41.155-43.124 50.485-71.67l0.299-1.058c18.182-48.747 12.539-136.366 10.659-189.502-2.978-75.393-135.739-89.657-141.068 5.329-0.009 0.427-0.015 0.93-0.015 1.434 0 5.775 0.691 11.388 1.995 16.762l-0.099-0.484c5.799 26.333 15.674 141.068 8.307 172.417-18.955-8.944-34.835-21.562-47.294-37.049l-0.199-0.256c-0.229-3.584-0.36-7.772-0.36-11.991s0.131-8.406 0.388-12.56l-0.028 0.569v-179.784l-15.674-4.702c-36.521-10.815-94.046-21.944-122.416 12.069-8.317 10.181-13.357 23.323-13.357 37.642 0 0.708 0.012 1.414 0.037 2.116l-0.003-0.102c0 71.161-3.919 143.89 0 214.737-0.066 0.962-0.104 2.085-0.104 3.217 0 16.075 7.61 30.373 19.424 39.488l0.116 0.086c36.835 24.452 68.967 18.809 109.72 17.712h20.847v-8.778z" />
<glyph unicode="&#xe904;" horiz-adv-x="2825" d="M1525.42 956.865c105.174 7.837 416.936 10.815 456.591-121.005 13.48-43.731-10.188-86.052-37.618-118.497-107.525-126.648-348.909-200.16-529.477-239.66 79.782-22.414 179.157-54.39 255.961-81.976 47.023-16.771 89.187-37.462 141.068-60.659s56.741-68.967 43.418-107.682c-18.182-53.449-88.873-92.478-169.439-40.596-68.372 45.206-149.327 92.1-232.964 134.465l-14.375 6.604c-48.433 24.452-101.883 46.239-148.122 64.265-27.587-59.092-36.521-86.679-67.87-143.89-41.067-75.55-135.426-70.221-169.909-72.885-17.869-2.351-42.947-2.978-52.039 19.123-1.183 2.504-1.874 5.439-1.874 8.536 0 4.787 1.651 9.188 4.414 12.666l-0.032-0.042c48.747 81.036 94.046 146.554 144.987 226.023-43.574 11.912-47.023 111.287 34.013 112.541 11.599 0 32.132 2.038 43.104 2.508 48.59 76.49 96.71 152.824 144.517 229.942-70.534-22.728-131.037-57.211-170.85-71.788-65.205-23.982-147.652 84.955-26.96 148.749 94.046 60.032 243.735 85.582 353.612 94.046zM1493.288 818.932c-38.402-73.042-68.497-150.159-115.049-246.87 137.463 20.533 333.078 68.967 432.14 176.492 64.578 78.371-108.466 114.265-317.090 70.221z" />
<glyph unicode="&#xe905;" horiz-adv-x="2825" d="M687.003 574.099c12.271-9.339 20.112-23.953 20.112-40.398 0-0.786-0.018-1.569-0.053-2.346l0.004 0.11c3.448-61.443 1.881-122.886 0-184.173 0.001-0.095 0.001-0.208 0.001-0.321 0-14.355-5.025-27.536-13.412-37.88l0.088 0.112c-28.37-33.7-85.738-22.884-122.416-12.069l-15.674 4.702v79.469l-18.496-19.906c-19.022-22.257-39.115-42.301-60.687-60.659l-0.756-0.627c-41.38-28.057-97.807-6.897-101.569 45.299-3.919 55.487-9.091 141.068 14.107 192.010 11.316 28.027 28.591 51.594 50.366 70.005l0.262 0.216c19.418 13.748 43.591 21.976 69.686 21.976 3.886 0 7.729-0.182 11.521-0.539l-0.485 0.037c62.661-3.948 119.951-23.924 168.729-55.832l-1.328 0.815zM517.251 524.882c16.328-3.619 30.378-11.753 41.197-23.014l0.026-0.027c2.337-2.351 3.781-5.592 3.781-9.17 0-0.248-0.007-0.494-0.021-0.739l0.002 0.034c-16.11-15.163-33.376-29.746-51.405-43.375l-1.574-1.14c-0.432-0.476-1.053-0.774-1.744-0.774-1.298 0-2.351 1.053-2.351 2.351 0 0.107 0.007 0.213 0.021 0.316l-0.001-0.012c-10.659 50.785-5.173 70.534 2.665 74.766 1.362 0.608 2.952 0.962 4.624 0.962s3.262-0.354 4.698-0.991l-0.074 0.029z" />
<glyph unicode="&#xe906;" horiz-adv-x="2825" d="M72.572 617.831c52.979 25.079 137.15 15.674 195.458 13.010l18.182-1.881c96.397-9.091 62.697-147.495-31.349-109.72-6.583 2.821-13.323 4.702-20.063 7.837-21.63 9.718-80.566 28.057-104.704 21.944 2.178-5.378 5.492-9.901 9.668-13.439l0.050-0.041c1.467-1.413 3.112-2.658 4.893-3.696l0.122-0.066c17.398-10.032 52.666-10.972 73.199-13.793 40.712-3.72 76.472-22.373 102.253-50.361l0.1-0.11c15.112-16.625 24.365-38.812 24.365-63.16 0-5.875-0.539-11.624-1.569-17.201l0.089 0.579c-7.367-42.791-34.17-63.638-70.848-81.036-52.979-24.922-136.993-15.674-195.615-13.010-6.113 0-12.383 1.097-18.339 1.724-96.553 9.248-62.697 147.652 31.349 109.72 6.74-2.665 13.323-4.546 19.75-7.524 22.101-10.345 81.036-28.214 105.174-22.257-2.368 5.347-5.65 9.884-9.69 13.611l-0.028 0.025-5.486 3.605c-17.242 10.032-52.666 11.129-72.729 13.95-40.77 3.679-76.592 22.341-102.409 50.361l-0.1 0.11c-15.191 16.644-24.496 38.888-24.496 63.304 0 5.824 0.529 11.524 1.542 17.054l-0.088-0.577c7.68 42.791 34.17 63.794 71.161 81.193z" />
<glyph unicode="&#xe907;" horiz-adv-x="2825" d="M1195.477 541.497c-72.729 1.724-76.647-75.236-29.938-89.657 238.406-66.145 350.633-139.971 530.261-247.183 130.88-78.371 184.173 70.691 109.72 110.817-122.416 66.616-383.863 141.068-477.281 165.050 67.086 10.345 438.88 77.117 592.487 257.371 205.176 240.914-511.295 261.917-743.744 113.952-95.456-49.531-41.537-152.511 34.327-118.654 70.502 38.022 152.397 70.791 238.208 94.036l8.192 1.89c247.81 60.346 452.046 6.113 382.139-79.939-163.796-200.631-638.726-206.744-644.369-207.684z" />
<glyph unicode="&#xe908;" horiz-adv-x="2825" d="M1195.477 242.432c-32.759-51.412-122.259-50.471-164.266-50.471-2.038 0-18.496 3.762-10.188 16.771 109.72 172.417 333.392 528.693 401.732 633.711 15.674 24.609-8.464 16.615 51.568 9.875 14.734-2.038 10.032-8.307 5.173-21.004-100.159-202.041-214.424-462.861-284.018-588.882z" />
<glyph unicode="&#xe909;" horiz-adv-x="2825" d="M1880.912 709.212c0 39.474 32 71.475 71.475 71.475s71.475-32 71.475-71.475c0-39.474-32-71.475-71.475-71.475v0c-39.438 0.089-71.386 32.036-71.475 71.466v0.009z" />
<glyph unicode="&#xe90a;" horiz-adv-x="2825" d="M1898.311 709.212c0 30.125 24.421 54.546 54.546 54.546s54.546-24.421 54.546-54.546c0-30.125-24.421-54.546-54.546-54.546-0.055 0-0.11 0-0.165 0h0.008c0 0 0 0 0 0-30.039 0-54.39 24.351-54.39 54.39 0 0.055 0 0.11 0 0.165v-0.009z" />
<glyph unicode="&#xe90b;" horiz-adv-x="2825" d="M1876.837 559.052c45.926 16.771 83.387 33.856 129.313 50.628 10.502 3.919 17.242 0 16.928-8.307l1.097-255.020c0-31.349-60.503-33.7-109.72-34.013 0 18.025 0 155.019 0 214.267 0 3.605-2.038 3.448-5.016 3.135l-37.462-3.762c-19.906-2.038-23.668 23.198 4.389 33.073z" />
<glyph unicode="&#xe90c;" horiz-adv-x="2825" d="M2205.997 763.445c-60.659 0.94-81.506-1.254-95.3-31.349-5.956-13.166-4.389-85.268-2.978-219.44s0-168.969 0-168.969c0-15.674 22.101-43.574 98.434-24.138v51.255c12.323 22.394 25.196 41.618 39.526 59.63l-0.654-0.852c54.076-23.041 64.265-67.399 95.456-117.244 31.349 2.665 95.3 28.37 62.697 78.371-37.932 48.277-65.989 78.371-106.115 92.008-2.978 0.784-2.978 2.038-1.724 3.292 19.712 17.349 36.674 37.153 50.595 59.078l0.66 1.112c5.893 8.016 9.431 18.081 9.431 28.972 0 3.956-0.467 7.803-1.348 11.489l0.068-0.335c-15.674 46.082-91.851 41.694-86.365-18.496 0-24.609-40.596-90.911-57.838-116.93 0 0-5.799-2.978-5.799 7.524 0 59.719 0 254.237 1.097 304.238z" />
<glyph unicode="&#xe90d;" horiz-adv-x="2825" d="M41.537 471.433c-11.519 12.643-18.574 29.53-18.574 48.064 0 4.564 0.428 9.028 1.245 13.354l-0.070-0.445c7.21 39.029 34.954 53.763 58.779 65.518 45.769 21.16 120.378 14.264 184.956 10.659 5.643 0 11.912-1.411 17.242-1.567 62.697-9.405 42.791-94.046-21.16-67.87-5.016 2.351-11.442 4.075-18.652 7.21-34.954 16.615-95.613 31.349-121.632 23.198-6.346-2.34-11.381-6.967-14.198-12.858l-0.066-0.152c-0.092-1.050-0.144-2.272-0.144-3.506 0-14.182 6.925-26.747 17.577-34.497l0.122-0.085c41.38-34.797 125.394 3.292 178.687-66.302 11.612-12.666 18.728-29.618 18.728-48.233 0-4.559-0.427-9.019-1.243-13.341l0.070 0.444c-6.74-38.872-34.954-53.606-59.092-65.205-45.455-21.16-120.222-14.107-184.643-10.659-5.643 0.157-12.069 1.097-16.771 2.194-62.697 9.248-42.791 94.046 21.004 67.556 7.537-2.358 13.716-4.751 19.707-7.484l-1.055 0.431c35.11-15.674 95.613-30.565 121.789-23.041 6.427 2.274 11.532 6.919 14.356 12.859l0.065 0.151c0.061 0.869 0.096 1.884 0.096 2.906 0 14.351-6.888 27.094-17.539 35.101l-0.113 0.081c-41.537 34.797-125.394-3.135-178.843 66.302z" />
<glyph unicode="&#xe90e;" horiz-adv-x="2825" d="M394.835 351.055c-4.075 56.427-8.934 137.62 11.756 181.351 9.954 24.956 25.142 45.984 44.31 62.524l0.205 0.173c15.724 10.54 35.073 16.822 55.89 16.822 3.612 0 7.18-0.189 10.694-0.558l-0.438 0.037c58.615-4.091 112.169-22.636 158.084-52.059l-1.341 0.804c6.4-6.217 10.371-14.905 10.371-24.52 0-0.472-0.010-0.942-0.029-1.41l0.002 0.067v-182.135c-2.351-40.126-43.104-49.374-107.369-29.781v118.654s-0.94 0.94-1.724 0c-36.426-42.847-73.14-81.696-111.776-118.548l-0.609-0.577c-26.176-17.555-64.735-8.151-67.399 28.997z" />
<glyph unicode="&#xe90f;" horiz-adv-x="2825" d="M508.787 544.632c24.501-5.169 45.597-17.332 61.71-34.277l0.047-0.050c3.495-3.514 5.656-8.358 5.656-13.706 0-0.251-0.005-0.501-0.014-0.75l0.001 0.036c-23.904-22.651-49.445-44.465-76.079-64.925l-2.292-1.691c-0.636-0.829-1.628-1.359-2.743-1.359-1.904 0-3.448 1.544-3.448 3.448 0 0.259 0.029 0.512 0.083 0.755l-0.004-0.023c-15.674 76.020-7.837 105.331 4.232 111.914 2.275 1.065 4.939 1.686 7.749 1.686 2.048 0 4.019-0.33 5.863-0.94l-0.132 0.038z" />
<glyph unicode="&#xe910;" horiz-adv-x="2825" d="M1041.869 352.779c2.038 56.898 6.113 139.188-9.405 181.195-8.389 25.608-23.843 46.987-44.052 62.472l-0.306 0.225c-11.325 10.271-26.427 16.558-42.998 16.558-3.747 0-7.419-0.321-10.99-0.938l0.382 0.055c-27.386-6.288-51.55-15.73-73.825-28.152l1.41 0.722v21.474c-34.64 1.097-65.518 6.897-97.337-14.107-6.143-5.986-9.954-14.34-9.954-23.584 0-0.802 0.029-1.597 0.085-2.384l-0.006 0.106v-213.64c0-41.223 43.418-50.001 107.682-30.408v163.483c-0.94 28.997 0 31.349 3.762 36.208 16.135 21.729 37.894 38.442 63.141 48.108l0.967 0.325c1.673 0.53 3.597 0.836 5.592 0.836 3.734 0 7.218-1.070 10.161-2.92l-0.080 0.047c22.571-11.912 6.426-167.401 0-198.123-0.65-3.46-1.047-7.465-1.097-11.554v-0.045c3.605-67.556 95.3-53.293 97.18-5.799z" />
<glyph unicode="&#xe911;" horiz-adv-x="2825" d="M2478.259 471.433c-11.507 12.683-18.551 29.599-18.551 48.16 0 4.529 0.419 8.961 1.222 13.257l-0.069-0.444c6.74 39.029 34.797 53.763 58.622 65.518 45.769 21.16 120.535 14.264 184.956 10.659 5.643 0 12.069-1.411 17.398-1.567 62.697-9.405 42.947-94.046-21.004-67.87-5.329 2.351-11.912 4.075-18.809 7.21-35.11 16.615-95.456 31.349-121.632 23.198-6.401-2.321-11.489-6.951-14.354-12.859l-0.066-0.151c-0.068-0.914-0.107-1.98-0.107-3.056 0-14.309 6.897-27.007 17.547-34.951l0.115-0.082c41.537-34.797 125.394 3.292 178.687-66.302 11.6-12.706 18.706-29.688 18.706-48.33 0-4.525-0.419-8.951-1.219-13.244l0.069 0.444c-7.21-38.872-35.11-53.606-59.092-65.205-45.769-21.16-120.222-14.107-185.113-10.659-5.486 0-11.756 1.254-17.398 1.567-62.697 9.248-42.791 94.046 21.16 67.556 5.016-1.881 11.599-3.762 18.652-6.897 35.11-16.458 95.613-31.349 121.789-23.198 6.43 2.192 11.517 6.87 14.203 12.859l0.060 0.151c0.089 1.037 0.14 2.245 0.14 3.464 0 14.16-6.852 26.719-17.422 34.542l-0.116 0.082c-41.537 34.797-125.394-3.135-178.843 66.145z" />
<glyph unicode="&#xe912;" horiz-adv-x="2825" d="M1349.241 558.112l-34.483-72.258 22.257-7.367 35.267 85.268-15.674 7.837c-1.522-5.147-3.999-9.601-7.249-13.369l0.039 0.046z" />
<glyph unicode="&#xe913;" horiz-adv-x="2825" d="M1298.927 389.927c2.038 5.643 10.815 15.674 5.016 18.025-39.813 14.107-80.096 26.019-131.507 42.007l-14.891-13.48c30.251-10.502 76.177-24.295 141.068-47.023z" />
<glyph unicode="&#xe914;" horiz-adv-x="2825" d="M1368.364 470.493c1.881 4.702 8.621 11.756 3.762 13.637-42.418 10.088-77.491 20.847-111.646 33.499l6.629-2.15c-12.696 5.329-16.928-6.897-4.075-11.599 15.674-5.956 45.455-15.674 62.697-21.317s24.609-5.016 42.791-11.285z" />
<glyph unicode="&#xe915;" horiz-adv-x="2825" d="M2758.671 836.957c11.561-0.26 22.329-3.426 31.673-8.792l-0.324 0.172c10.377-5.553 18.714-13.739 24.296-23.68l0.156-0.301c5.862-9.225 9.531-20.359 10.027-32.313l0.004-0.133c-0.036-11.955-3.291-23.143-8.943-32.751l0.166 0.305c-5.661-10.206-13.821-18.417-23.676-23.98l-0.306-0.159c-9.355-5.377-20.569-8.549-32.524-8.549s-23.169 3.172-32.847 8.719l0.323-0.171c-10.347 5.529-18.609 13.791-23.987 23.829l-0.151 0.309c-5.408 9.322-8.606 20.509-8.621 32.441v0.004c0.011 12.042 3.208 23.336 8.793 33.085l-0.172-0.326c5.8 10.199 14.255 18.301 24.435 23.514l0.331 0.154c8.998 5.275 19.785 8.455 31.301 8.62l0.048 0.001zM2758.671 825.985c-9.886-0.076-19.162-2.621-27.262-7.048l0.302 0.151c-8.483-4.82-15.304-11.691-19.928-19.957l-0.135-0.263c-4.63-7.792-7.367-17.18-7.367-27.206 0-0.024 0-0.047 0-0.071v0.004c0-0.067 0-0.145 0-0.224 0-9.869 2.739-19.098 7.498-26.969l-0.131 0.233c4.839-8.422 11.773-15.155 20.106-19.617l0.27-0.132c7.855-4.471 17.245-7.135 27.251-7.21h0.022c9.976 0.052 19.318 2.72 27.387 7.354l-0.271-0.143c8.195 4.638 14.763 11.307 19.151 19.337l0.128 0.256c4.791 7.83 7.685 17.277 7.837 27.388v0.042c-0.022 10.029-2.695 19.43-7.354 27.544l0.143-0.271c-4.843 8.467-11.842 15.214-20.26 19.619l-0.274 0.13c-7.701 4.256-16.866 6.799-26.617 6.896h-0.029zM2730.614 735.231v70.534h23.982c0.888 0.045 1.928 0.071 2.975 0.071 5.287 0 10.422-0.654 15.326-1.887l-0.432 0.092c3.753-1.258 6.835-3.681 8.895-6.832l0.040-0.065c2.031-2.835 3.259-6.365 3.292-10.18v-0.008c0-0.033 0-0.072 0-0.111 0-5.162-2.097-9.835-5.486-13.212l-0.001-0.001c-3.674-3.791-8.745-6.21-14.381-6.425l-0.039-0.001c2.273-0.852 4.21-2.134 5.796-3.759l0.003-0.003c3.944-4.082 7.421-8.657 10.319-13.612l0.183-0.338 8.934-14.107h-14.107l-6.27 11.129c-3.072 6.093-7.008 11.28-11.72 15.642l-0.036 0.033c-2.281 1.583-5.109 2.529-8.157 2.529-0.273 0-0.545-0.008-0.815-0.023l0.037 0.002h-6.74v-29.938h-11.285zM2741.9 774.73h13.95c0.51-0.042 1.103-0.067 1.702-0.067 4.31 0 8.327 1.251 11.709 3.411l-0.088-0.052c2.027 1.79 3.299 4.395 3.299 7.296 0 0.135-0.003 0.269-0.008 0.403l0.001-0.019c0 0.036 0.001 0.079 0.001 0.122 0 2.044-0.584 3.951-1.594 5.565l0.026-0.044c-1.119 1.673-2.737 2.936-4.638 3.586l-0.064 0.019c-2.759 0.741-5.927 1.166-9.194 1.166-0.791 0-1.576-0.025-2.355-0.074l0.106 0.005h-13.010v-21.16z" />
<glyph unicode="&#xe916;" horiz-adv-x="2825" d="M1370.401 802.474c1.254-5.643-1.567-15.674 3.919-13.793 35.426 13.597 76.996 24.539 120.047 30.944l3.31 0.405c15.674 2.665 10.345 19.906-15.674 13.793-44.467-10.073-81.574-21.12-117.674-34.265l6.7 2.133z" />
<glyph unicode="&#xe917;" horiz-adv-x="2825" d="M53.136-61.962v111.287h54.076v-15.674h-35.581v-95.613h-18.496z" />
<glyph unicode="&#xe918;" horiz-adv-x="2825" d="M221.321 49.325h27.587c0.516 0.012 1.123 0.019 1.733 0.019 7.016 0 13.818-0.922 20.289-2.652l-0.548 0.125c5.932-1.998 10.771-5.923 13.886-11.016l0.064-0.113c3.549-5.517 5.658-12.252 5.658-19.48 0-0.37-0.006-0.739-0.017-1.107l0.001 0.054c0.009-0.314 0.015-0.683 0.015-1.053 0-6.567-1.69-12.739-4.658-18.106l0.098 0.193c-2.787-5.023-6.987-8.972-12.063-11.373l-0.163-0.069c-6.067-2.241-13.075-3.537-20.385-3.537-1.155 0-2.302 0.032-3.441 0.096l0.158-0.007h-9.718v-43.261h-18.496v111.287zM239.816 35.218v-38.872h9.091c0.965-0.138 2.080-0.216 3.213-0.216 5.406 0 10.393 1.788 14.404 4.806l-0.061-0.044c2.978 3.479 4.791 8.033 4.791 13.011 0 0.662-0.032 1.316-0.095 1.962l0.006-0.082c0.012 0.274 0.019 0.595 0.019 0.918 0 4.231-1.172 8.188-3.21 11.565l0.056-0.101c-1.534 2.684-3.931 4.726-6.807 5.771l-0.089 0.028c-3.152 0.818-6.77 1.288-10.498 1.288-0.608 0-1.212-0.012-1.814-0.037l0.086 0.003h-9.091z" />
<glyph unicode="&#xe919;" horiz-adv-x="2825" d="M429.318-29.83l-32.446 79.155h18.809l21.317-56.584 18.496 56.584h16.615l-28.37-84.328c-2.215-8.268-6.001-15.459-11.049-21.569l0.077 0.095c-4.012-3.548-9.317-5.714-15.128-5.714-0.634 0-1.261 0.026-1.882 0.076l0.082-0.005h-8.307v15.674h7.524c2.082 0.117 4.008 0.683 5.715 1.603l-0.073-0.036c3.321 2.609 5.686 6.303 6.563 10.542l0.020 0.117z" />
<glyph unicode="&#xe91a;" horiz-adv-x="2825" d="M585.747-61.962v111.287h67.243v-111.287h-18.339v97.18h-30.408v-97.18h-18.496z" />
<glyph unicode="&#xe91b;" horiz-adv-x="2825" d="M779.795-61.962v111.287h66.616v-111.287h-17.869v97.18h-30.408v-97.18h-18.339z" />
<glyph unicode="&#xe91c;" horiz-adv-x="2825" d="M994.689 49.325h20.69l29.938-111.444h-18.809l-7.68 28.057h-31.349l-7.524-27.9h-17.555zM1016.006-19.642l-12.853 51.098-12.696-51.098h25.392z" />
<glyph unicode="&#xe91d;" horiz-adv-x="2825" d="M1298.143 49.325h18.496v-53.136l33.543 53.136h19.593l-28.841-40.753 33.543-70.534h-19.906l-24.922 55.33-13.010-18.809v-36.521h-18.496v111.287z" />
<glyph unicode="&#xe91e;" horiz-adv-x="2825" d="M1562.411-6.319c0.075-1.26 0.118-2.734 0.118-4.218 0-14.362-4.007-27.788-10.965-39.221l0.189 0.334c-6.191-8.883-16.356-14.623-27.863-14.623-0.62 0-1.235 0.017-1.847 0.050l0.085-0.004c-0.501-0.026-1.087-0.041-1.676-0.041-11.577 0-21.816 5.731-28.033 14.511l-0.072 0.107c-6.611 10.886-10.523 24.045-10.523 38.117 0 1.81 0.065 3.605 0.192 5.382l-0.014-0.239c-0.104 1.473-0.163 3.193-0.163 4.926 0 14.091 3.906 27.27 10.695 38.512l-0.187-0.334c6.948 8.88 17.665 14.534 29.703 14.534s22.755-5.654 29.641-14.452l0.062-0.082c6.779-11.048 10.795-24.427 10.795-38.743 0-1.589-0.049-3.167-0.147-4.732l0.011 0.214zM1542.975-6.319c0.048 1.076 0.076 2.337 0.076 3.606 0 9.934-1.692 19.472-4.805 28.343l0.183-0.6c-2.449 6.631-8.715 11.273-16.066 11.273s-13.617-4.642-16.028-11.155l-0.038-0.118c-2.925-8.321-4.614-17.915-4.614-27.903 0-1.212 0.025-2.418 0.074-3.617l-0.006 0.172c-0.037-0.952-0.058-2.071-0.058-3.194 0-10.075 1.685-19.756 4.789-28.776l-0.186 0.622c1.854-6.739 7.927-11.608 15.138-11.608 0.189 0 0.377 0.003 0.564 0.010l-0.027-0.001c0.186-0.008 0.404-0.012 0.623-0.012 7.097 0 13.093 4.717 15.023 11.187l0.028 0.111c3.388 8.851 5.35 19.088 5.35 29.784 0 0.66-0.007 1.319-0.022 1.976l0.002-0.098z" />
<glyph unicode="&#xe91f;" horiz-adv-x="2825" d="M1684.984 49.325h27.43l22.257-80.252 22.728 80.252h26.176v-111.287h-17.242v94.986l-26.49-94.986h-13.323l-26.019 95.143v-95.143h-15.674v111.287z" />
<glyph unicode="&#xe920;" horiz-adv-x="2825" d="M1910.223-61.962v111.287h67.243v-111.287h-18.182v97.18h-31.349v-97.18h-18.339z" />
<glyph unicode="&#xe921;" horiz-adv-x="2825" d="M2125.117 49.325h20.69l29.938-111.444h-18.652l-7.053 27.9h-32.602l-6.897-27.9h-17.555zM2146.434-19.642l-12.696 51.098-12.696-51.098h25.392z" />
<glyph unicode="&#xe922;" horiz-adv-x="2825" d="M2292.205 49.325h18.496v-45.455h32.759v45.455h18.496v-111.287h-18.652v50.158h-32.759v-50.158h-18.496v111.287z" />
<glyph unicode="&#xe923;" horiz-adv-x="2825" d="M2506.943-52.088v-9.875h-18.496v111.287h18.496v-62.697s0-5.956 0-15.674c2.898 8.012 6.121 14.836 9.891 21.302l-0.33-0.612 26.019 47.023v10.659h18.496v-111.287h-18.496v57.681s0 6.897 0 19.123c-3.128-8.187-6.395-15.053-10.124-21.624l0.406 0.777z" />
<glyph unicode="&#xe924;" horiz-adv-x="2825" d="M2705.692-52.088v-9.875h-18.496v111.287h18.496v-62.697s0-5.956 0-15.674c2.889 8.007 6.112 14.832 9.887 21.294l-0.326-0.604 26.019 47.023v10.659h17.398v-111.287h-18.496v57.681s0 6.897 0 19.123c-3.133-8.191-6.4-15.057-10.126-21.629l0.408 0.782zM2698.639 79.89h11.442c1.453-5.341 6.259-9.204 11.968-9.204 0.589 0 1.168 0.041 1.734 0.12l-0.065-0.008c0.491-0.070 1.058-0.11 1.634-0.11 5.677 0 10.451 3.87 11.827 9.116l0.019 0.085h11.599c-2.669-11.569-12.882-20.063-25.079-20.063s-22.409 8.494-25.045 19.89l-0.034 0.173z" />
<glyph unicode="&#xe97b;" glyph-name="spinner2" d="M1024 448c-1.278 66.862-15.784 133.516-42.576 194.462-26.704 61-65.462 116.258-113.042 161.92-47.552 45.696-103.944 81.82-164.984 105.652-61.004 23.924-126.596 35.352-191.398 33.966-64.81-1.282-129.332-15.374-188.334-41.356-59.048-25.896-112.542-63.47-156.734-109.576-44.224-46.082-79.16-100.708-102.186-159.798-23.114-59.062-34.128-122.52-32.746-185.27 1.286-62.76 14.964-125.148 40.134-182.206 25.088-57.1 61.476-108.828 106.11-151.548 44.61-42.754 97.472-76.504 154.614-98.72 57.118-22.304 118.446-32.902 179.142-31.526 60.708 1.29 120.962 14.554 176.076 38.914 55.15 24.282 105.116 59.48 146.366 102.644 41.282 43.14 73.844 94.236 95.254 149.43 13.034 33.458 21.88 68.4 26.542 103.798 1.246-0.072 2.498-0.12 3.762-0.12 35.346 0 64 28.652 64 64 0 1.796-0.094 3.572-0.238 5.332h0.238zM922.306 278.052c-23.472-53.202-57.484-101.4-99.178-141.18-41.67-39.81-91-71.186-144.244-91.79-53.228-20.678-110.29-30.452-166.884-29.082-56.604 1.298-112.596 13.736-163.82 36.474-51.25 22.666-97.684 55.49-135.994 95.712-38.338 40.198-68.528 87.764-88.322 139.058-19.87 51.284-29.228 106.214-27.864 160.756 1.302 54.552 13.328 108.412 35.254 157.69 21.858 49.3 53.498 93.97 92.246 130.81 38.73 36.868 84.53 65.87 133.874 84.856 49.338 19.060 102.136 28.006 154.626 26.644 52.5-1.306 104.228-12.918 151.562-34.034 47.352-21.050 90.256-51.502 125.624-88.782 35.396-37.258 63.21-81.294 81.39-128.688 18.248-47.392 26.782-98.058 25.424-148.496h0.238c-0.144-1.76-0.238-3.536-0.238-5.332 0-33.012 24.992-60.174 57.086-63.624-6.224-34.822-16.53-68.818-30.78-100.992z" />
</font>
</defs>
</svg>
