<svg xmlns="http://www.w3.org/2000/svg" viewBox="0 0 79.27 79.46"><title>СОБЫТИЯ</title><polygon points="79.27 34.52 79.27 79.45 0 0 45.15 0 79.27 34.52" class="sticker--blue"></polygon><g><path d="M33.94,11.7l-1.66-1.47q1.32-1.38.3-2.41-1.17-1.17-3.26.9A4.11,4.11,0,0,0,28,10.68,1.48,1.48,0,0,0,28.47,12q0.93,0.93,2.34-.07l1.36,1.54a3.63,3.63,0,0,1-2.6.89,3.72,3.72,0,0,1-2.34-1.15A3.75,3.75,0,0,1,26,10.26a4.91,4.91,0,0,1,1.63-3.21,5.06,5.06,0,0,1,3.14-1.59,3.65,3.65,0,0,1,3,1.18Q36.13,8.94,33.94,11.7Z" style="fill: #fff"></path><path d="M33.09,19.07a3.29,3.29,0,0,1-1-3,5.48,5.48,0,0,1,1.64-3,5.28,5.28,0,0,1,3.05-1.61,3.42,3.42,0,0,1,3,1.11,3.23,3.23,0,0,1,1,3,5.61,5.61,0,0,1-1.61,3,5.46,5.46,0,0,1-3,1.64A3.37,3.37,0,0,1,33.09,19.07Zm5.41-5.31q-1.17-1.18-3.25.89t-0.9,3.25Q35.49,19,37.56,17T38.5,13.76Z" style="fill: #fff"></path><path d="M36.9,22.7l6.4-6.38,4.27,4.28-1.15,1.15-2.81-2.81-1.4,1.39,1.07,1.08a6.18,6.18,0,0,1,1.16,1.49,2.16,2.16,0,0,1,.18,1.41,2.75,2.75,0,0,1-.81,1.42,2.61,2.61,0,0,1-2,.87,3.18,3.18,0,0,1-2.09-1.06ZM39.57,23l1.15,1.15a1.22,1.22,0,0,0,.84.42,1,1,0,0,0,.78-0.34q0.75-.74-0.22-1.71l-1-1Z" style="fill: #fff"></path><path d="M42.87,28.69l6.4-6.38,1.47,1.47-2.35,2.34,1.09,1.1a5.91,5.91,0,0,1,1.13,1.47,2.16,2.16,0,0,1,.14,1.48,3,3,0,0,1-.84,1.47,2.89,2.89,0,0,1-2,.91,3.22,3.22,0,0,1-2.3-1.14ZM45.54,29l1.1,1.1a1.09,1.09,0,0,0,1.74.07,1.07,1.07,0,0,0,0-1.72l-1.12-1.12Zm3,5.38L54.9,28l1.47,1.47L50,35.81Z" style="fill: #fff"></path><path d="M61.73,34.81l-1.27,1.26-1.58-1.58-5.13,5.12-1.51-1.52L57.37,33l-1.59-1.59L57,30.12Z" style="fill: #fff"></path><path d="M58.09,42.69l-0.63.63L56,41.85l6.4-6.38,1.47,1.47-2.72,2.72q-0.7.7-1.46,1.37a11.3,11.3,0,0,1,2-.6l3.65-.65L66,39.12l1.47,1.47L61.09,47l-1.47-1.47,2.9-2.89q0.73-.73,1.23-1.15a10.11,10.11,0,0,1-2,.59Z" style="fill: #fff"></path><path d="M68.41,49.23L67.15,48l-3.58,1.48L62,47.86l4.19-1.45a2.41,2.41,0,0,1,.55-2.75,2.87,2.87,0,0,1,1.81-.82A3.25,3.25,0,0,1,71,44.08l2.8,2.81-6.4,6.38-1.5-1.51Zm2.72-2.71-0.88-.88A4.23,4.23,0,0,0,69.48,45a0.92,0.92,0,0,0-.6-0.08,1.12,1.12,0,0,0-.62.32,1.15,1.15,0,0,0-.33.67,1,1,0,0,0,.09.65,3.9,3.9,0,0,0,.58.69l0.91,0.92Z" style="fill: #fff"></path></g></svg>