<svg xmlns="http://www.w3.org/2000/svg" viewBox="0 0 79 79"><polygon points="79 34.07 79 79 0 0 45.15 0 79 34.07" class="sticker--yellow"></polygon><g><path d="M36.25,9.26l-6.4,6.38-1.47-1.47L31,11.53l-2-2L26.4,12.16l-1.47-1.47,6.4-6.38,1.47,1.47L30.3,8.27l2,2,2.49-2.48Z" transform="translate(0 -0.46)" style="fill: #fff"></path><path d="M33.42,19.41a3.29,3.29,0,0,1-1-3,5.47,5.47,0,0,1,1.64-3,5.27,5.27,0,0,1,3.05-1.61,3.41,3.41,0,0,1,3,1.11,3.23,3.23,0,0,1,1,3,5.61,5.61,0,0,1-1.61,3,5.45,5.45,0,0,1-3,1.64A3.37,3.37,0,0,1,33.42,19.41Zm5.41-5.31q-1.18-1.18-3.25.89t-0.9,3.25q1.14,1.14,3.21-.92T38.83,14.1Z" transform="translate(0 -0.46)" style="fill: #fff"></path><path d="M43.65,16.68l3,3a4.06,4.06,0,0,1,1,1.4,2.5,2.5,0,0,1,.1,1.23,2.1,2.1,0,0,1-.63,1.15,2,2,0,0,1-2.57.26,2.3,2.3,0,0,1,.4,1.59,2.24,2.24,0,0,1-.64,1.3,2.35,2.35,0,0,1-1.78.69A3.51,3.51,0,0,1,40.23,26l-3-3Zm-2.18,5.15-1.54,1.54,1.15,1.15a1.83,1.83,0,0,0,1,.63,1.08,1.08,0,0,0,1.12-1.1,1.55,1.55,0,0,0-.55-1ZM44,19.3l-1.4,1.4,1.13,1.14a1.29,1.29,0,0,0,1,.54,1.22,1.22,0,0,0,.63-0.31,1,1,0,0,0,.28-0.55A0.8,0.8,0,0,0,45.62,21,4,4,0,0,0,45,20.33Z" transform="translate(0 -0.46)" style="fill: #fff"></path><path d="M45.59,30.15L45,30.78l-1.47-1.47,6.4-6.38,1.47,1.47-2.73,2.72q-0.7.7-1.46,1.37a11.27,11.27,0,0,1,2-.6l3.65-.65,0.67-.66L55,28l-6.4,6.38L47.12,33,50,30.06q0.73-.73,1.23-1.15a10.05,10.05,0,0,1-2,.59Z" transform="translate(0 -0.46)" style="fill: #fff"></path><path d="M61.2,34.28l-6.4,6.38-1.47-1.47L56,36.56l-2-2-2.64,2.63-1.47-1.47,6.4-6.38,1.47,1.47L55.25,33.3l2,2,2.49-2.49Z" transform="translate(0 -0.46)" style="fill: #fff"></path><path d="M63.94,37l-3,3,5-1,1.43,1.44-3.81.74-2.2,6-1.65-1.65,1.51-4L59,41.95l-1.47,1.46-1.47-1.47,6.4-6.38Z" transform="translate(0 -0.46)" style="fill: #fff"></path><path d="M64.21,48.83l-0.63.63L62.11,48l6.4-6.38L70,43.08,67.25,45.8q-0.7.7-1.46,1.37a11.35,11.35,0,0,1,2-.6l3.65-.65,0.67-.66,1.47,1.47-6.4,6.38-1.47-1.47,2.9-2.89q0.73-.73,1.23-1.15a10,10,0,0,1-2,.59Z" transform="translate(0 -0.46)" style="fill: #fff"></path></g></svg>