<svg xmlns="http://www.w3.org/2000/svg" viewBox="0 0 79.27 79.46"><title>Цены</title><polygon points="79.27 34.52 79.27 79.45 0 0 45.15 0 79.27 34.52" class="sticker--green"></polygon><g><path d="M33.58,19.37L40,13l1.47,1.47-5.13,5.12,1.85,1.85,5.13-5.12,1.47,1.47L39.62,22.9l0.78,0.79-2.61,2.6-1-1L38,23.83Z" style="fill: #fff"></path><path d="M49.49,25l-3-3-1.31,1.31,2.39,2.39-1.21,1.2-2.39-2.4-1.4,1.39,3,3-1.27,1.26-4.56-4.57,6.4-6.38,4.56,4.57Z" style="fill: #fff"></path><path d="M56.54,29.6L50.14,36l-1.47-1.47,2.64-2.63-2-2-2.64,2.63L45.22,31l6.4-6.38,1.47,1.47-2.49,2.49,2,2,2.49-2.49Z" style="fill: #fff"></path><path d="M51.47,37.32l6.4-6.38,1.47,1.47L57,34.76l1.09,1.1a5.91,5.91,0,0,1,1.13,1.47,2.16,2.16,0,0,1,.14,1.48,3,3,0,0,1-.84,1.47,2.89,2.89,0,0,1-2,.91A3.22,3.22,0,0,1,54.19,40Zm2.68,0.27,1.1,1.1a1.09,1.09,0,0,0,1.74.07A1.07,1.07,0,0,0,57,37l-1.12-1.12Zm3,5.38,6.4-6.38L65,38.06l-6.4,6.38Z" style="fill: #fff"></path></g></svg>