<svg xmlns="http://www.w3.org/2000/svg" viewBox="0 0 86.13 87.62"><title>АКЦИИ</title><polygon points="79.27 42.69 79.27 87.62 0 8.17 45.15 8.17 79.27 42.69" class="sticker--red"/><line x1="6.12" x2="86.13" y2="80.25" style="fill: none"/><g style="isolation: isolate"><path d="M40.83,13.85l-4.4,8.38-1.6-1.61,0.92-1.71-2.06-2.07L32,17.76l-1.31-1.31,8.44-4.33ZM35.23,16l1.35,1.35,1.58-2.91Z" transform="translate(0 8.17)" style="fill: #fff"/></g><g style="isolation: isolate"><path d="M45,18l-3,3,5-1,1.43,1.44-3.82.74-2.2,6-1.65-1.65,1.51-4L40,22.92l-1.47,1.46-1.47-1.47,6.4-6.38Z" transform="translate(0 8.17)" style="fill: #fff"/></g><g style="isolation: isolate"><path d="M43.21,29l6.4-6.38,1.47,1.47-5.13,5.12,1.85,1.85L52.92,26l1.47,1.47-5.13,5.12L50,33.35,47.43,36l-1-1,1.22-1.46Z" transform="translate(0 8.17)" style="fill: #fff"/></g><g style="isolation: isolate"><path d="M51.46,36l-0.63.63L49.36,35.2l6.4-6.38,1.47,1.47L54.5,33q-0.7.7-1.46,1.37a11.51,11.51,0,0,1,2-.6l3.65-.65,0.67-.66,1.47,1.47-6.4,6.38L53,38.85,55.89,36q0.73-.73,1.23-1.15a10,10,0,0,1-2,.59Z" transform="translate(0 8.17)" style="fill: #fff"/></g><g style="isolation: isolate"><path d="M57.87,42.47l-0.63.63-1.47-1.47,6.4-6.38,1.47,1.47L60.9,39.43q-0.7.7-1.46,1.37a11.35,11.35,0,0,1,2-.6l3.65-.65,0.67-.66,1.47,1.47-6.4,6.38L59.4,45.27l2.9-2.89q0.73-.73,1.23-1.15a9.92,9.92,0,0,1-2,.59Z" transform="translate(0 8.17)" style="fill: #fff"/></g></svg>