<!-- Generated by IcoMoon.io -->
<svg version="1.1" xmlns="http://www.w3.org/2000/svg" width="38" height="32" viewBox="0 0 38 32">
    <path fill="none" stroke="#fff" stroke-width="0.9143" stroke-miterlimit="10" stroke-linecap="butt" stroke-linejoin="miter" d="M1.243 2.839c0 0 4.493 0 6.43 0s4.161 1.976 4.161 6.050c0 4.076 0 2.11 0 6.914 0 4.802 2.622 8.615 8.507 8.615 3.853 0 7.401 0 10.084 0 5.868 0 6.462-3.398 6.462-7.036 0-1.454 0.013-0.972 0.013-2.936 0-1.491-0.625-2.201-2.074-2.201"></path>
    <path stroke="#fff" fill="#fff" stroke-width="0.9143" stroke-miterlimit="4" stroke-linecap="butt" stroke-linejoin="miter" d="M17.2 28.091c0 1.202-1.001 2.176-2.23 2.176-1.231 0-2.232-0.973-2.232-2.176 0-1.2 1.002-2.174 2.232-2.174s2.23 0.975 2.23 2.174z"></path>
    <path stroke="#fff" fill="#fff" stroke-width="0.9143" stroke-miterlimit="4" stroke-linecap="butt" stroke-linejoin="miter" d="M35.548 28.091c0 1.202-0.998 2.176-2.229 2.176s-2.229-0.974-2.229-2.176c0-1.202 0.998-2.176 2.229-2.176s2.229 0.974 2.229 2.176z"></path>
</svg>