<?xml version="1.0" encoding="utf-8"?>
<!-- Generator: Adobe Illustrator 16.0.0, SVG Export Plug-In . SVG Version: 6.00 Build 0)  -->
<!DOCTYPE svg PUBLIC "-//W3C//DTD SVG 1.1//EN" "http://www.w3.org/Graphics/SVG/1.1/DTD/svg11.dtd">
<svg version="1.1" id="Слой_1" xmlns="http://www.w3.org/2000/svg" xmlns:xlink="http://www.w3.org/1999/xlink" x="0px" y="0px"
	 width="43px" height="43px" viewBox="0 0 43 43" enable-background="new 0 0 43 43" xml:space="preserve">
<g id="Иконка_Добавлен">
	<rect fill="#39B54A" width="43" height="43"/>
	<g>
		
			<line fill="none" stroke="#FFFFFF" stroke-linecap="round" stroke-linejoin="round" stroke-miterlimit="10" x1="21" y1="15.5" x2="30" y2="15.5"/>
		
			<line fill="none" stroke="#FFFFFF" stroke-linecap="round" stroke-linejoin="round" stroke-miterlimit="10" x1="25.5" y1="11" x2="25.5" y2="20"/>
		<g>
			<g>
				<g>
					<path fill="none" stroke="#FFFFFF" stroke-linecap="round" stroke-miterlimit="10" d="M9.5,14.373c0,0,2.771,0,3.968,0
						c1.195,0,2.565,1.233,2.565,3.774c0,2.542,0,1.316,0,4.313c0,2.994,1.619,5.373,5.25,5.373c2.377,0,4.566,0,6.223,0
						c3.619,0,3.987-2.121,3.987-4.389c0-0.907,0.007-0.605,0.007-1.832c0-0.93-0.385-1.373-1.279-1.373"/>
					<ellipse fill="#FFFFFF" cx="17.968" cy="30.126" rx="1.376" ry="1.358"/>
					<path fill="#FFFFFF" d="M30.667,30.126c0,0.751-0.618,1.358-1.378,1.358c-0.756,0-1.375-0.607-1.375-1.358
						c0-0.75,0.619-1.356,1.375-1.356C30.049,28.77,30.667,29.376,30.667,30.126z"/>
				</g>
			</g>
		</g>
	</g>
</g>
</svg>
