<?xml version="1.0" encoding="utf-8"?>
<!-- Generator: Adobe Illustrator 16.0.0, SVG Export Plug-In . SVG Version: 6.00 Build 0)  -->
<!DOCTYPE svg PUBLIC "-//W3C//DTD SVG 1.1//EN" "http://www.w3.org/Graphics/SVG/1.1/DTD/svg11.dtd">
<svg version="1.1" id="Слой_1" xmlns="http://www.w3.org/2000/svg" xmlns:xlink="http://www.w3.org/1999/xlink" x="0px" y="0px"
	 width="19px" height="17.136px" viewBox="0 0 19 17.136" enable-background="new 0 0 19 17.136" xml:space="preserve">
<g>
	
		<line fill="none" stroke="#FFFFFF" stroke-linecap="round" stroke-linejoin="round" stroke-miterlimit="10" x1="10" y1="4" x2="17" y2="4"/>
	
		<line fill="none" stroke="#FFFFFF" stroke-linecap="round" stroke-linejoin="round" stroke-miterlimit="10" x1="13.5" y1="0.5" x2="13.5" y2="7.5"/>
	<g>
		<g>
			<g>
				<path fill="none" stroke="#FFFFFF" stroke-linecap="round" stroke-miterlimit="10" d="M0.5,3.136c0,0,2.268,0,3.246,0
					s2.1,1.009,2.1,3.088c0,2.08,0,1.077,0,3.529c0,2.45,1.324,4.396,4.295,4.396c1.945,0,3.736,0,5.092,0
					c2.961,0,3.262-1.735,3.262-3.591c0-0.742,0.006-0.495,0.006-1.499c0-0.761-0.314-1.123-1.047-1.123"/>
				<ellipse fill="#FFFFFF" cx="7.429" cy="16.024" rx="1.126" ry="1.111"/>
				<ellipse fill="#FFFFFF" cx="16.692" cy="16.024" rx="1.126" ry="1.111"/>
			</g>
		</g>
	</g>
</g>
</svg>
