<?xml version="1.0" encoding="utf-8"?>
<!-- Generator: Adobe Illustrator 16.0.0, SVG Export Plug-In . SVG Version: 6.00 Build 0)  -->
<!DOCTYPE svg PUBLIC "-//W3C//DTD SVG 1.1//EN" "http://www.w3.org/Graphics/SVG/1.1/DTD/svg11.dtd">
<svg version="1.1" id="Слой_1" xmlns="http://www.w3.org/2000/svg" xmlns:xlink="http://www.w3.org/1999/xlink" x="0px" y="0px"
	 width="35.001px" height="21.031px" viewBox="0 0 35.001 21.031" enable-background="new 0 0 35.001 21.031" xml:space="preserve">
<g id="Адрес_3_">
	<path fill="none" stroke="#000000" stroke-linecap="round" stroke-linejoin="round" stroke-miterlimit="10" d="M29.301,2.051v3.977
		c0,0-0.148,1.523,0.977,1.523s3.523,0,3.523,0"/>
	
		<ellipse fill="none" stroke="#000000" stroke-linecap="round" stroke-linejoin="round" stroke-miterlimit="10" cx="5.829" cy="17.527" rx="3.044" ry="3.004"/>
	
		<ellipse fill="none" stroke="#000000" stroke-linecap="round" stroke-linejoin="round" stroke-miterlimit="10" cx="27.067" cy="17.527" rx="3.046" ry="3.004"/>
	<path fill="none" stroke="#000000" stroke-linecap="round" stroke-linejoin="round" stroke-miterlimit="10" d="M28.936,1.5
		c-1.132,0-3.045,0-4.492,0c-1.107,0-1.942,7.105-1.942,7.105V15.5h-0.023c0.656-1,2.451-2.94,4.59-2.94
		c2.135,0,3.934,1.94,4.588,2.94h2.846c0,0,0-1.808,0-4.104c0-0.516,0-1.033,0-1.525c0-0.997,0-1.892,0-2.462
		C34.501,5.303,30.935,1.5,28.936,1.5z"/>
	<path fill="none" stroke="#000000" stroke-linecap="round" stroke-linejoin="round" stroke-miterlimit="10" d="M2.722,0.5
		c-2.355,0-2.221,1.041-2.221,2.542s0,12.458,0,12.458h0.816c0.655-1,2.303-2.816,4.439-2.816c2.138,0,4.082,1.816,4.738,2.816
		h12.006c0,0,0-12.361,0-13.309c0-0.943-0.61-1.691-1.619-1.691C16.628,0.5,5.288,0.5,2.722,0.5z"/>
</g>
</svg>
