<?xml version="1.0" encoding="utf-8"?>
<!-- Generator: Adobe Illustrator 16.0.0, SVG Export Plug-In . SVG Version: 6.00 Build 0)  -->
<!DOCTYPE svg PUBLIC "-//W3C//DTD SVG 1.1//EN" "http://www.w3.org/Graphics/SVG/1.1/DTD/svg11.dtd">
<svg version="1.1" id="Слой_1" xmlns="http://www.w3.org/2000/svg" xmlns:xlink="http://www.w3.org/1999/xlink" x="0px" y="0px"
	 width="32px" height="29px" viewBox="-7.5 -3.979 32 29" enable-background="new -7.5 -3.979 32 29" xml:space="preserve">
<path fill="none" stroke="#000000" stroke-linecap="round" stroke-linejoin="round" stroke-miterlimit="10" d="M-0.114,14.258
	c0,0,0-11.981,0-13.595c0-2.924,0.805-4.143,4.058-4.143c2.006,0,13.973,0,13.973,0L24,1.009v11.989"/>
<polyline fill="none" stroke="#000000" stroke-linecap="round" stroke-linejoin="round" stroke-miterlimit="10" points="
	17.913,-3.479 17.913,1.091 24,1.091 "/>
<polygon fill="none" stroke="#000000" stroke-linecap="round" stroke-linejoin="round" stroke-miterlimit="10" points="
	13.89,15.652 18.875,24.464 23.859,15.652 20.956,15.652 20.956,9.981 16.79,9.981 16.79,15.652 "/>
<line fill="none" stroke="#000000" stroke-linecap="round" stroke-linejoin="round" stroke-miterlimit="10" x1="-7" y1="17.692" x2="-2.193" y2="24.521"/>
<line fill="none" stroke="#000000" stroke-linecap="round" stroke-linejoin="round" stroke-miterlimit="10" x1="-2.434" y1="17.692" x2="-7" y2="24.521"/>
<polyline fill="none" stroke="#000000" stroke-linecap="round" stroke-linejoin="round" stroke-miterlimit="10" points="
	0.61,17.692 0.61,24.469 4.095,24.469 "/>
<path fill="none" stroke="#000000" stroke-linecap="round" stroke-linejoin="round" stroke-miterlimit="10" d="M10.113,18.335
	c-0.829-0.547-3.895-1.145-4.137,1.105c-0.239,2.25,4.244,1.211,4.365,3.366c0.096,1.725-2.736,2.249-4.365,1.104"/>
</svg>
