<?xml version="1.0" encoding="utf-8"?>
<!-- Generator: Adobe Illustrator 16.0.0, SVG Export Plug-In . SVG Version: 6.00 Build 0)  -->
<!DOCTYPE svg PUBLIC "-//W3C//DTD SVG 1.1//EN" "http://www.w3.org/Graphics/SVG/1.1/DTD/svg11.dtd">
<svg version="1.1" id="Слой_1" xmlns="http://www.w3.org/2000/svg" xmlns:xlink="http://www.w3.org/1999/xlink" x="0px" y="0px"
	 width="35px" height="21px" viewBox="0 0 35 21" enable-background="new 0 0 35 21" xml:space="preserve">
<g id="Адрес">
	<path fill="none" stroke="#000000" stroke-linecap="round" stroke-linejoin="round" stroke-miterlimit="10" d="M29.3,2.048v3.971
		c0,0-0.148,1.521,0.976,1.521c1.125,0,3.523,0,3.523,0"/>
	
		<ellipse fill="none" stroke="#000000" stroke-linecap="round" stroke-linejoin="round" stroke-miterlimit="10" cx="5.829" cy="17.501" rx="3.045" ry="2.999"/>
	
		<ellipse fill="none" stroke="#000000" stroke-linecap="round" stroke-linejoin="round" stroke-miterlimit="10" cx="27.066" cy="17.501" rx="3.045" ry="2.999"/>
	<path fill="none" stroke="#000000" stroke-linecap="round" stroke-linejoin="round" stroke-miterlimit="10" d="M28.935,1.499
		c-1.132,0-3.045,0-4.492,0c-1.107,0-1.941,7.095-1.941,7.095v6.885h-0.023c0.656-0.999,2.451-2.938,4.588-2.938
		s3.933,1.938,4.589,2.938H34.5c0,0,0-1.807,0-4.098c0-0.516,0-1.032,0-1.523c0-0.996,0-1.889,0-2.458
		C34.5,5.296,30.934,1.499,28.935,1.499z"/>
	<path fill="none" stroke="#000000" stroke-linecap="round" stroke-linejoin="round" stroke-miterlimit="10" d="M2.721,0.5
		c-2.354,0-2.22,1.04-2.22,2.538c0,1.499,0,12.44,0,12.44h0.816c0.655-0.999,2.302-2.813,4.439-2.813
		c2.138,0,4.083,1.813,4.739,2.813h12.006c0,0,0-12.346,0-13.29S21.89,0.5,20.882,0.5C16.627,0.5,5.287,0.5,2.721,0.5z"/>
</g>
</svg>
