<?xml version="1.0" encoding="utf-8"?>
<!-- Generator: Adobe Illustrator 16.0.0, SVG Export Plug-In . SVG Version: 6.00 Build 0)  -->
<!DOCTYPE svg PUBLIC "-//W3C//DTD SVG 1.1//EN" "http://www.w3.org/Graphics/SVG/1.1/DTD/svg11.dtd">
<svg version="1.1" id="Слой_1" xmlns="http://www.w3.org/2000/svg" xmlns:xlink="http://www.w3.org/1999/xlink" x="0px" y="0px"
	 width="79.268px" height="79.455px" viewBox="0 0 79.268 79.455" enable-background="new 0 0 79.268 79.455" xml:space="preserve">
<g>
	<g>
		<g>
			<polygon fill="#916091" points="79.268,34.522 79.268,79.455 0,0 45.145,0 			"/>
		</g>
	</g>
</g>
<g>
	<path fill="#FFFFFF" d="M41.298,19.078l-1.664-1.471c0.882-0.922,0.981-1.725,0.301-2.407c-0.779-0.783-1.865-0.48-3.255,0.906
		c-0.804,0.8-1.242,1.448-1.315,1.946c-0.074,0.498,0.079,0.938,0.46,1.32c0.618,0.619,1.399,0.597,2.343-0.069l1.358,1.541
		c-0.858,0.67-1.724,0.965-2.598,0.886c-0.873-0.079-1.654-0.464-2.343-1.155c-0.845-0.847-1.238-1.826-1.182-2.938
		c0.056-1.11,0.601-2.181,1.631-3.209c0.966-0.962,2.012-1.494,3.139-1.596c1.124-0.102,2.131,0.291,3.016,1.18
		C42.721,15.549,42.758,17.237,41.298,19.078z"/>
	<path fill="#FFFFFF" d="M46.006,19.04L43,22.036l5.004-0.991l1.43,1.435l-3.814,0.741l-2.199,6.021l-1.645-1.649l1.505-4.046
		l-2.206,0.41l-1.466,1.462l-1.468-1.472l6.397-6.379L46.006,19.04z"/>
	<path fill="#FFFFFF" d="M44.727,30.552l-1.315-1.318l8.192-4.576l2.002,2.007l-4.579,8.201l-1.616-1.621l3.728-6.394L44.727,30.552
		z"/>
	<path fill="#FFFFFF" d="M59.112,32.188l-4.399,8.381l-1.606-1.611l0.925-1.706l-2.063-2.069l-1.717,0.912l-1.311-1.314l8.441-4.326
		L59.112,32.188z M53.508,34.363l1.352,1.355l1.574-2.909L53.508,34.363z"/>
	<path fill="#FFFFFF" d="M56.438,39.881l6.497-3.86l2.306,2.314l-3.869,6.495l0.617,0.618l-2.555,2.547l-0.967-0.971l1.191-1.495
		l-3.934-3.946l-1.495,1.19l-0.963-0.964l2.555-2.548L56.438,39.881z M57.734,41.182l2.046,2.05l3.083-4.864l-0.253-0.253
		L57.734,41.182z"/>
</g>
</svg>
