<?xml version="1.0" encoding="utf-8"?>
<!-- Generator: Adobe Illustrator 16.0.0, SVG Export Plug-In . SVG Version: 6.00 Build 0)  -->
<!DOCTYPE svg PUBLIC "-//W3C//DTD SVG 1.1//EN" "http://www.w3.org/Graphics/SVG/1.1/DTD/svg11.dtd">
<svg version="1.1" id="Слой_1" xmlns="http://www.w3.org/2000/svg" xmlns:xlink="http://www.w3.org/1999/xlink" x="0px" y="0px"
	 width="79.268px" height="79.455px" viewBox="0 0 79.268 79.455" enable-background="new 0 0 79.268 79.455" xml:space="preserve">
<g>
	<g>
		<g>
			<polygon fill="#29ABE2" points="79.268,34.522 79.268,79.455 0,0 45.145,0 			"/>
		</g>
	</g>
</g>
<g>
	<path fill="#FFFFFF" d="M33.941,11.702l-1.664-1.471c0.882-0.923,0.981-1.725,0.301-2.406c-0.78-0.783-1.866-0.481-3.255,0.905
		c-0.804,0.799-1.242,1.448-1.315,1.946c-0.074,0.498,0.079,0.938,0.46,1.32c0.618,0.619,1.399,0.597,2.342-0.069l1.359,1.541
		c-0.858,0.67-1.724,0.966-2.598,0.886c-0.873-0.079-1.654-0.464-2.343-1.155c-0.845-0.847-1.238-1.826-1.182-2.938
		c0.056-1.111,0.601-2.181,1.631-3.209c0.966-0.962,2.012-1.494,3.138-1.595c1.126-0.102,2.132,0.291,3.017,1.179
		C35.364,8.172,35.401,9.861,33.941,11.702z"/>
	<path fill="#FFFFFF" d="M33.086,19.074c-0.859-0.861-1.2-1.851-1.023-2.966c0.177-1.116,0.725-2.132,1.644-3.049
		c0.935-0.932,1.952-1.47,3.054-1.615c1.101-0.145,2.092,0.225,2.972,1.107c0.89,0.893,1.229,1.899,1.014,3.019
		c-0.214,1.12-0.751,2.106-1.609,2.964c-0.928,0.924-1.943,1.471-3.048,1.639C34.982,20.34,33.982,19.974,33.086,19.074z
		 M38.499,13.763c-0.783-0.786-1.865-0.49-3.247,0.886c-1.383,1.38-1.684,2.463-0.9,3.248c0.759,0.762,1.828,0.453,3.209-0.923
		C38.945,15.594,39.257,14.523,38.499,13.763z"/>
	<path fill="#FFFFFF" d="M36.896,22.696l6.396-6.378l4.271,4.283l-1.147,1.146l-2.805-2.813l-1.396,1.393l1.074,1.078
		c0.558,0.559,0.945,1.056,1.163,1.49c0.218,0.433,0.278,0.905,0.181,1.413c-0.099,0.509-0.368,0.983-0.812,1.425
		c-0.616,0.614-1.284,0.904-2.002,0.87c-0.72-0.034-1.416-0.388-2.088-1.063L36.896,22.696z M39.57,22.963l1.15,1.152
		c0.271,0.271,0.551,0.411,0.839,0.415c0.288,0.006,0.549-0.106,0.78-0.338c0.497-0.495,0.423-1.066-0.223-1.713l-1.027-1.031
		L39.57,22.963z"/>
	<path fill="#FFFFFF" d="M42.869,28.689l6.396-6.378l1.468,1.472l-2.349,2.341l1.094,1.096c0.533,0.535,0.908,1.022,1.128,1.465
		c0.219,0.442,0.267,0.935,0.143,1.479c-0.124,0.545-0.404,1.035-0.842,1.472c-0.594,0.592-1.271,0.896-2.029,0.912
		c-0.76,0.015-1.525-0.364-2.298-1.14L42.869,28.689z M45.545,28.955l1.099,1.102c0.602,0.604,1.182,0.626,1.74,0.068
		c0.56-0.558,0.546-1.131-0.04-1.718l-1.12-1.124L45.545,28.955z M48.499,34.336l6.397-6.377l1.466,1.471l-6.396,6.378
		L48.499,34.336z"/>
	<path fill="#FFFFFF" d="M61.732,34.814l-1.266,1.262l-1.579-1.585l-5.131,5.117l-1.514-1.519l5.131-5.116l-1.588-1.593l1.264-1.262
		L61.732,34.814z"/>
	<path fill="#FFFFFF" d="M58.088,42.688l-0.632,0.631l-1.468-1.472l6.397-6.378l1.467,1.472l-2.725,2.716
		c-0.468,0.467-0.955,0.924-1.46,1.372c0.789-0.301,1.467-0.502,2.033-0.6l3.653-0.65l0.666-0.663l1.467,1.472l-6.397,6.378
		l-1.467-1.473l2.9-2.891c0.486-0.484,0.897-0.866,1.234-1.146c-0.683,0.275-1.359,0.471-2.031,0.589L58.088,42.688z"/>
	<path fill="#FFFFFF" d="M68.407,49.233l-1.258-1.262l-3.581,1.479l-1.583-1.589l4.191-1.452c-0.401-1.07-0.217-1.988,0.551-2.754
		c0.479-0.477,1.08-0.751,1.805-0.823s1.538,0.345,2.441,1.25l2.8,2.81l-6.397,6.377l-1.505-1.509L68.407,49.233z M71.131,46.519
		l-0.881-0.884c-0.349-0.349-0.605-0.568-0.771-0.659c-0.164-0.09-0.367-0.116-0.604-0.077c-0.239,0.038-0.447,0.147-0.625,0.324
		c-0.185,0.184-0.296,0.406-0.334,0.669c-0.038,0.261-0.009,0.477,0.087,0.646c0.097,0.167,0.291,0.398,0.583,0.691l0.914,0.917
		L71.131,46.519z"/>
</g>
</svg>
