<?xml version="1.0" encoding="utf-8"?>
<!-- Generator: Adobe Illustrator 16.0.0, SVG Export Plug-In . SVG Version: 6.00 Build 0)  -->
<!DOCTYPE svg PUBLIC "-//W3C//DTD SVG 1.1//EN" "http://www.w3.org/Graphics/SVG/1.1/DTD/svg11.dtd">
<svg version="1.1" id="Слой_1" xmlns="http://www.w3.org/2000/svg" xmlns:xlink="http://www.w3.org/1999/xlink" x="0px" y="0px"
	 width="39.5px" height="30.5px" viewBox="0 0 39.5 30.5" enable-background="new 0 0 39.5 30.5" xml:space="preserve">
<g id="Корзина_4_">
	<path fill="none" stroke="#000000" stroke-miterlimit="10" d="M0,0.5c0,0,4.914,0,7.033,0c2.119,0,4.551,2.161,4.551,6.617
		c0,4.458,0,2.308,0,7.562c0,5.252,2.868,9.423,9.305,9.423c4.214,0,8.095,0,11.029,0c6.418,0,7.068-3.716,7.068-7.696
		c0-1.59,0.014-1.063,0.014-3.211c0-1.631-0.684-2.407-2.268-2.407"/>
	<path d="M17.453,28.12c0,1.315-1.095,2.38-2.439,2.38c-1.346,0-2.441-1.064-2.441-2.38c0-1.313,1.096-2.378,2.441-2.378
		C16.358,25.742,17.453,26.808,17.453,28.12z"/>
	<ellipse cx="35.083" cy="28.12" rx="2.438" ry="2.38"/>
</g>
</svg>
