<?xml version="1.0" encoding="utf-8"?>
<!-- Generator: Adobe Illustrator 16.0.0, SVG Export Plug-In . SVG Version: 6.00 Build 0)  -->
<!DOCTYPE svg PUBLIC "-//W3C//DTD SVG 1.1//EN" "http://www.w3.org/Graphics/SVG/1.1/DTD/svg11.dtd">
<svg version="1.1" id="Слой_1" xmlns="http://www.w3.org/2000/svg" xmlns:xlink="http://www.w3.org/1999/xlink" x="0px" y="0px"
	 width="180.198px" height="65.333px" viewBox="0 0 180.198 65.333" enable-background="new 0 0 180.198 65.333"
	 xml:space="preserve">
<g id="Логотип">
	<g>
		<path fill-rule="evenodd" clip-rule="evenodd" fill="#FFFFFF" d="M143.626,24.899c-0.264-4.994,6.382-5.508,7.723-1.477
			c0.401,1.209-0.018,2.389-0.626,3.434c-0.745,1.291-1.6,2.215-2.538,3.213c2.406,1.195,4.254,3.234,5.949,5.654
			c2.621,3.658-1.483,6.479-4.764,6.732l-0.57,0.059l-0.31-0.498c-1.576-2.496-2.31-5.24-4.917-6.737
			c-0.276,0.188-1.668,2.427-1.81,2.888v3.598c-2.065,0.61-4.623,1.166-6.671,0.279c-0.998-0.437-1.941-1.346-1.91-2.537
			c0.18-3.543,0.068-7.363,0.029-10.907c-0.045-3.338-0.106-6.703-0.086-10.05c0-0.986-0.029-3.688,0.361-4.556
			c1.344-2.946,4.322-2.649,7.135-2.615l1.299,0.013c-0.1,3.4-0.117,11.877-0.123,17.637
			C142.235,28.348,143.663,25.759,143.626,24.899"/>
		<path fill-rule="evenodd" clip-rule="evenodd" fill="#FFFFFF" d="M160.534,21.884c3.369-1.593,8.736-1.038,12.471-0.825
			c0.377,0.014,0.764,0.069,1.153,0.098c6.159,0.598,4.041,9.425-1.981,7.004c-0.424-0.174-0.855-0.283-1.279-0.479
			c-1.397-0.656-5.155-1.797-6.696-1.408c0.102,0.312,0.431,0.688,0.631,0.865c0.099,0.086,0.216,0.169,0.328,0.231
			c1.11,0.648,3.362,0.705,4.653,0.891c2.604,0.371,4.722,1.215,6.539,3.216c1.266,1.268,1.775,3.348,1.463,5.084
			c-0.469,2.732-2.186,4.076-4.527,5.186c-3.377,1.594-8.738,1.025-12.477,0.825c-0.384-0.028-0.783-0.07-1.172-0.116
			c-6.145-0.578-4.022-9.409,2.001-6.989c0.435,0.17,0.841,0.28,1.27,0.481c1.412,0.656,5.173,1.796,6.708,1.414
			c-0.118-0.323-0.434-0.718-0.634-0.873c-0.097-0.08-0.202-0.171-0.337-0.243c-1.094-0.638-3.342-0.695-4.643-0.877
			c-2.623-0.376-4.745-1.21-6.536-3.226c-1.267-1.265-1.776-3.353-1.481-5.094C156.47,24.317,158.168,22.999,160.534,21.884"/>
		<path fill-rule="evenodd" clip-rule="evenodd" fill="#FFFFFF" d="M119.272,24.264c2.774-0.996,5.479-2.194,8.246-3.205
			c1.434-0.527,2.941,0.224,2.96,1.83l0.052,16.264c0.02,3.602-5.82,3.544-8.346,3.544l-1.396,0.018v-1.391
			c0-3.298-0.023-2.399-0.006-12.376l-1.174,0.125C116.701,29.368,115.936,25.47,119.272,24.264"/>
		<path fill-rule="evenodd" clip-rule="evenodd" fill="#FFFFFF" d="M56.662,22.022c1.087-0.453,2.267-0.84,3.081-0.919
			c1.767-0.17,3.09,0.151,4.441,1.279c1.641,1.337,2.536,2.617,3.24,4.569c1.16,3.106,0.803,8.697,0.678,12.09
			c-0.186,4.808-8.66,5.719-8.978-0.344c-0.013-0.283,0.033-0.773,0.124-1.13c0.371-1.679,1.049-9.034,0.533-11.042
			c-1.043,0.401-2.416,1.58-3.059,2.449c-0.062,0.414-0.014,1.165-0.014,1.535v11.463l-0.988,0.303
			c-2.33,0.691-6.01,1.395-7.806-0.769c-0.604-0.715-0.851-1.601-0.851-2.515c-0.008-4.537-0.249-9.178,0-13.705
			c0.059-1.069,0.281-2.087,1.244-2.727c2.354-1.563,4.396-1.205,7.02-1.133l1.333,0.039V22.022z"/>
		<path fill-rule="evenodd" clip-rule="evenodd" fill="#FFFFFF" d="M97.315,0.196c6.711-0.498,26.6-0.685,29.131,7.721
			c0.855,2.791-0.648,5.492-2.396,7.559c-6.855,8.078-22.264,12.772-33.783,15.289c5.089,1.432,11.428,3.47,16.328,5.229
			c3.038,1.066,5.691,2.387,9.01,3.872c3.222,1.44,3.621,4.399,2.766,6.874c-1.162,3.406-5.666,5.896-10.805,2.594
			c-5.025-3.278-10.41-6.353-15.785-9.04c-3.091-1.556-6.496-2.948-9.447-4.101c-1.76,3.8-2.32,5.572-4.299,9.214
			c-2.621,4.819-8.638,4.483-10.839,4.651c-1.143,0.145-2.737,0.195-3.321-1.225c-0.274-0.67-0.064-1.056,0.111-1.339
			c3.105-5.166,5.971-9.353,9.253-14.424c-2.784-0.762-2.968-7.104,2.168-7.185c0.741-0.017,2.05-0.126,2.747-0.159
			c3.1-4.88,6.166-9.749,9.225-14.673c-4.5,1.449-8.359,3.652-10.903,4.58c-4.161,1.534-9.417-5.417-1.72-9.486
			C80.753,2.319,90.303,0.691,97.315,0.196 M95.271,9.026c-2.453,4.663-4.373,9.583-7.344,15.748
			c8.767-1.309,21.245-4.401,27.572-11.264C119.623,8.551,108.575,6.223,95.271,9.026"/>
		<path fill-rule="evenodd" clip-rule="evenodd" fill="#FFFFFF" d="M43.825,24.616c0.945,0.614,1.224,1.669,1.281,2.715
			c0.225,3.922,0.124,7.835,0,11.75c-0.016,0.898-0.285,1.736-0.855,2.427c-1.807,2.145-5.465,1.46-7.805,0.769l-0.979-0.303v-5.056
			l-1.182,1.271c-0.957,1.021-2.817,3.174-3.918,3.914c-2.636,1.795-6.238,0.441-6.477-2.894c-0.247-3.537-0.585-9.014,0.898-12.246
			c0.813-1.793,1.646-3.215,3.201-4.484c1.334-1.106,3.461-1.48,5.153-1.375C36.862,21.333,40.722,22.555,43.825,24.616
			 M32.96,27.762c0.459,0.131,1.753,0.441,2.635,1.47c0.23,0.271,0.244,0.438,0.244,0.626c-0.569,0.598-2.846,2.486-3.379,2.841
			c-0.111,0.116-0.259,0.032-0.264-0.124c-0.682-3.245-0.335-4.501,0.174-4.766C32.531,27.704,32.761,27.704,32.96,27.762"/>
		<path fill-rule="evenodd" clip-rule="evenodd" fill="#FFFFFF" d="M4.628,21.829c3.376-1.598,8.746-1.025,12.471-0.831
			c0.393,0.034,0.77,0.075,1.156,0.123c6.146,0.58,4.021,9.408-1.98,7.002c-0.424-0.177-0.854-0.304-1.279-0.501
			c-1.395-0.659-5.153-1.79-6.691-1.406c0.094,0.311,0.428,0.712,0.621,0.862c0.099,0.103,0.216,0.175,0.324,0.243
			c1.111,0.643,3.359,0.698,4.666,0.883c2.604,0.369,4.723,1.216,6.535,3.221c1.265,1.259,1.772,3.354,1.461,5.092
			c-0.465,2.733-2.176,4.064-4.521,5.172c-3.377,1.594-8.741,1.038-12.475,0.826c-0.389-0.013-0.787-0.07-1.17-0.106
			c-6.155-0.59-4.029-9.421,1.993-7.002c0.427,0.172,0.845,0.287,1.265,0.483c1.405,0.658,5.172,1.796,6.709,1.416
			c-0.111-0.318-0.431-0.701-0.623-0.875c-0.117-0.079-0.223-0.152-0.346-0.228c-1.099-0.641-3.363-0.713-4.637-0.886
			c-2.626-0.383-4.748-1.221-6.542-3.224c-1.263-1.263-1.782-3.347-1.481-5.084C0.573,24.278,2.262,22.939,4.628,21.829"/>
		<path fill-rule="evenodd" clip-rule="evenodd" fill="#FF5000" d="M76.274,26.697c-4.645-0.111-4.885,4.801-1.912,5.717
			c15.209,4.218,22.367,8.928,33.834,15.769c8.354,4.994,11.754-4.515,7.023-7.074c-7.814-4.252-24.494-9.049-30.447-10.526
			c4.284-0.657,28.048-4.925,37.8-16.416C135.63-1.199,89.917-2.537,75.089,6.903c-6.092,3.158-2.65,9.725,2.191,7.566
			c5.016-2.656,11.102-4.988,15.688-6.115c15.813-3.854,28.843-0.385,24.377,5.1C106.925,26.253,76.632,26.639,76.274,26.697"/>
		<path fill-rule="evenodd" clip-rule="evenodd" fill="#FF5000" d="M76.274,45.776c-2.098,3.287-7.802,3.274-10.479,3.24
			c-0.131,0-1.18-0.236-0.655-1.066c7.001-11.032,21.269-33.729,25.63-40.431c1.01-1.569-0.543-1.059,3.286-0.63
			c0.935,0.099,0.643,0.514,0.333,1.323C87.974,21.103,80.712,37.744,76.274,45.776"/>
		<path fill-rule="evenodd" clip-rule="evenodd" fill="#FFFFFF" d="M120.019,15.999c0-2.517,2.057-4.555,4.563-4.555
			c2.516,0,4.56,2.038,4.56,4.555c0,2.512-2.044,4.559-4.56,4.559C122.075,20.557,120.019,18.51,120.019,15.999"/>
		<path fill-rule="evenodd" clip-rule="evenodd" d="M121.113,15.999c0-1.92,1.542-3.487,3.468-3.487c1.93,0,3.482,1.567,3.482,3.487
			c0,1.924-1.553,3.48-3.482,3.48C122.655,19.479,121.113,17.922,121.113,15.999"/>
		<path fill-rule="evenodd" clip-rule="evenodd" d="M119.743,25.584c2.933-1.068,5.323-2.162,8.252-3.228
			c0.674-0.248,1.098,0.039,1.078,0.532l0.067,16.268c-0.048,1.96-3.856,2.148-6.956,2.167c0-1.147-0.006-9.891-0.006-13.671
			c-0.045-0.229-0.132-0.219-0.318-0.205c-0.684,0.061-2.023,0.205-2.393,0.244C118.198,27.819,117.962,26.215,119.743,25.584"/>
		<path fill-rule="evenodd" clip-rule="evenodd" d="M140.739,12.542c-3.865-0.056-5.198,0.082-6.08,2.021
			c-0.381,0.837-0.281,5.437-0.193,13.955c0.095,8.52-0.018,10.778-0.018,10.778c0,0.953,1.412,2.775,6.278,1.536v-3.244
			c0.893-1.562,2.009-3.279,2.476-3.752c3.447,1.47,4.104,4.304,6.094,7.48c2.035-0.175,6.08-1.812,4.031-5.04
			c-2.418-3.076-4.207-4.952-6.771-5.869c-0.186-0.052-0.186-0.129-0.111-0.214c1.579-1.596,2.43-2.362,3.271-3.842
			c0.428-0.724,0.822-1.626,0.519-2.56c-0.966-2.938-5.864-2.665-5.506,1.183c0.021,1.573-2.59,5.803-3.69,7.456
			c0,0-0.365,0.186-0.365-0.475C140.673,28.147,140.657,15.731,140.739,12.542"/>
		<path fill-rule="evenodd" clip-rule="evenodd" d="M2.648,31.169c0,0-1.534-1.499-1.108-3.89c0.445-2.487,2.232-3.432,3.754-4.176
			c2.922-1.35,7.678-0.908,11.805-0.684c0.357,0.022,0.76,0.09,1.1,0.102c4.017,0.6,2.732,5.951-1.346,4.334
			c-0.324-0.148-0.734-0.26-1.19-0.456c-2.231-1.06-6.096-1.968-7.763-1.483c-0.318,0.102-0.777,0.454-0.911,0.828
			c-0.211,0.584,0.261,1.72,1.118,2.434c2.641,2.221,7.97-0.207,11.396,4.225c0,0,1.551,1.515,1.119,3.9
			c-0.432,2.477-2.229,3.418-3.77,4.163c-2.896,1.352-7.668,0.904-11.781,0.677c-0.365-0.01-0.77-0.076-1.114-0.097
			c-4.015-0.593-2.731-5.952,1.337-4.314c0.334,0.124,0.76,0.239,1.192,0.454c2.245,1.04,6.099,1.948,7.773,1.466
			c0.315-0.097,0.772-0.437,0.918-0.829c0.192-0.576-0.276-1.723-1.12-2.429C11.405,33.172,6.079,35.592,2.648,31.169"/>
		<path fill-rule="evenodd" clip-rule="evenodd" d="M25.189,38.848c-0.257-3.605-0.571-8.779,0.747-11.568
			c0.549-1.211,1.276-2.688,2.842-3.971c0.864-0.714,2.49-1.153,4.182-1.068c2.672,0.202,6.543,0.991,9.994,3.27
			c0.512,0.346,0.592,1.063,0.656,1.653V38.78c-0.145,2.562-2.746,3.149-6.846,1.896v-7.564c0-0.05-0.061-0.065-0.107-0.01
			c-0.619,0.815-6.185,6.938-7.167,7.596C27.823,41.818,25.36,41.217,25.189,38.848 M32.46,26.497
			c0.685,0.183,2.619,0.643,3.943,2.194c0.331,0.397,0.361,0.639,0.361,0.922c-0.856,0.888-4.246,3.714-5.05,4.251
			c-0.166,0.177-0.386,0.054-0.386-0.178c-1.008-4.853-0.502-6.724,0.271-7.137C31.824,26.417,32.179,26.417,32.46,26.497"/>
		<path fill-rule="evenodd" clip-rule="evenodd" d="M66.468,38.737c0.129-3.631,0.389-8.879-0.599-11.557
			c-0.573-1.582-1.253-2.706-2.825-3.979c-0.869-0.708-1.723-1.131-3.424-0.96c-1.08,0.097-3.393,1.068-4.594,1.692v-1.372
			c-2.213-0.068-4.184-0.436-6.207,0.904c-0.529,0.339-0.555,1.051-0.628,1.648v13.623c0.021,2.625,2.771,3.192,6.867,1.939V30.251
			c-0.06-1.848,0-1.958,0.237-2.306c1.295-1.817,3.354-2.888,4.088-3.087c0.289-0.085,0.638-0.085,1,0.13
			c1.438,0.756,0.414,10.683-0.044,12.641c-0.016,0.056-0.082,0.537-0.072,0.741C60.5,42.68,66.348,41.772,66.468,38.737"/>
		<path fill-rule="evenodd" clip-rule="evenodd" d="M158.106,31.169c0,0-1.533-1.515-1.106-3.89
			c0.428-2.487,2.221-3.432,3.741-4.176c2.923-1.35,7.691-0.908,11.805-0.684c0.357,0.022,0.77,0.09,1.112,0.102
			c4.018,0.6,2.735,5.951-1.339,4.334c-0.336-0.148-0.756-0.26-1.198-0.456c-2.241-1.06-6.089-1.968-7.757-1.483
			c-0.326,0.102-0.783,0.454-0.922,0.828c-0.2,0.584,0.271,1.72,1.116,2.434c2.654,2.221,7.96-0.207,11.404,4.225
			c0,0,1.548,1.515,1.122,3.9c-0.455,2.477-2.242,3.418-3.766,4.163c-2.922,1.352-7.674,0.904-11.808,0.677
			c-0.352-0.01-0.749-0.076-1.106-0.097c-4.003-0.593-2.731-5.952,1.351-4.314c0.317,0.124,0.745,0.239,1.192,0.44
			c2.24,1.054,6.105,1.962,7.768,1.479c0.328-0.097,0.772-0.437,0.91-0.829c0.21-0.576-0.265-1.723-1.111-2.429
			C166.86,33.172,161.542,35.592,158.106,31.169"/>
		<path fill-rule="evenodd" clip-rule="evenodd" fill="#FFFFFF" d="M86.081,25.643l-2.198,4.608l1.423,0.474l2.255-5.438
			l-1.022-0.495C86.538,24.792,86.081,25.926,86.081,25.643"/>
		<path fill-rule="evenodd" clip-rule="evenodd" fill="#FFFFFF" d="M82.868,36.374c0.131-0.361,0.692-1.025,0.32-1.146
			c-2.545-0.901-5.112-1.658-8.388-2.681l-0.95,0.856C75.782,34.071,78.705,34.948,82.868,36.374"/>
		<path fill-rule="evenodd" clip-rule="evenodd" fill="#FFFFFF" d="M87.3,31.225c0.12-0.298,0.549-0.752,0.238-0.868
			c-1.627-0.487-4.313-0.968-6.703-1.952c-0.813-0.343-1.085,0.438-0.259,0.744c1.02,0.381,2.898,1.033,3.999,1.361
			C85.729,30.866,86.142,30.831,87.3,31.225"/>
		<path d="M176.031,7.851c0.706,0,1.382,0.188,2.046,0.547c0.668,0.351,1.176,0.864,1.56,1.535c0.374,0.663,0.562,1.367,0.562,2.091
			c0,0.709-0.188,1.411-0.562,2.067c-0.372,0.667-0.882,1.179-1.53,1.542c-0.662,0.375-1.354,0.545-2.075,0.545
			c-0.721,0-1.417-0.17-2.073-0.545c-0.668-0.363-1.186-0.875-1.537-1.542c-0.369-0.656-0.553-1.358-0.553-2.067
			c0-0.724,0.184-1.428,0.553-2.091c0.371-0.671,0.902-1.185,1.575-1.535C174.632,8.04,175.321,7.851,176.031,7.851 M176.031,8.551
			c-0.589,0-1.161,0.151-1.719,0.441c-0.537,0.295-0.983,0.743-1.29,1.293c-0.32,0.559-0.467,1.139-0.467,1.738
			c0,0.596,0.146,1.183,0.467,1.723c0.301,0.548,0.719,0.986,1.273,1.294c0.563,0.3,1.127,0.461,1.735,0.461
			c0.604,0,1.183-0.161,1.728-0.461c0.559-0.308,0.986-0.746,1.277-1.294c0.305-0.54,0.46-1.127,0.46-1.723
			c0-0.6-0.155-1.18-0.463-1.738c-0.3-0.55-0.744-0.998-1.299-1.293C177.181,8.703,176.614,8.551,176.031,8.551 M174.207,14.331
			V9.844h1.533c0.521,0,0.912,0.039,1.138,0.115c0.242,0.084,0.432,0.232,0.566,0.439c0.146,0.215,0.214,0.432,0.214,0.654
			c0,0.329-0.116,0.612-0.349,0.855c-0.233,0.248-0.546,0.389-0.924,0.415c0.156,0.067,0.283,0.139,0.367,0.236
			c0.189,0.173,0.404,0.472,0.666,0.89l0.557,0.881h-0.899l-0.398-0.714c-0.31-0.56-0.556-0.893-0.753-1.039
			c-0.132-0.098-0.308-0.158-0.574-0.158h-0.428v1.911H174.207z M174.923,11.813h0.893c0.408,0,0.691-0.076,0.854-0.206
			c0.136-0.113,0.213-0.281,0.213-0.495c0-0.126-0.03-0.242-0.099-0.357c-0.074-0.1-0.169-0.186-0.298-0.225
			c-0.151-0.057-0.395-0.069-0.729-0.069h-0.833V11.813z"/>
		<path fill-rule="evenodd" clip-rule="evenodd" fill="#FFFFFF" d="M87.425,10.051c0.076,0.365-0.1,0.963,0.252,0.878
			c2.181-0.878,4.568-1.464,7.873-2.047c0.952-0.166,0.663-1.27-1.041-0.884C92.074,8.551,89.8,9.208,87.425,10.051"/>
	</g>
	<g>
		<g>
			<path fill="#77787B" d="M3.394,65.203v-7.107h3.448v0.989H4.57v6.118H3.394z"/>
			<path fill="#77787B" d="M14.118,58.095h1.76c0.563,0,1.019,0.054,1.368,0.157c0.351,0.108,0.646,0.341,0.888,0.706
				c0.238,0.361,0.357,0.797,0.357,1.308c0,0.468-0.097,0.871-0.291,1.209c-0.194,0.336-0.455,0.58-0.783,0.729
				c-0.328,0.149-0.833,0.224-1.514,0.224h-0.608v2.775h-1.177V58.095z M15.295,59.006v2.479h0.583c0.521,0,0.881-0.097,1.08-0.293
				c0.199-0.195,0.3-0.511,0.3-0.946c0-0.327-0.065-0.593-0.198-0.795c-0.133-0.205-0.275-0.328-0.436-0.375
				c-0.158-0.049-0.406-0.07-0.746-0.07H15.295z"/>
			<path fill="#77787B" d="M27.385,63.149l-2.069-5.054h1.205l1.36,3.614l1.176-3.614h1.062l-1.813,5.375
				c-0.225,0.672-0.459,1.126-0.704,1.368c-0.242,0.244-0.604,0.364-1.083,0.364h-0.483v-1.015h0.483c0.098,0,0.219-0.032,0.362-0.1
				c0.144-0.066,0.284-0.291,0.417-0.678L27.385,63.149z"/>
			<path fill="#77787B" d="M37.372,65.203v-7.107h4.291v7.107h-1.176V59.04H38.55v6.163H37.372z"/>
			<path fill="#77787B" d="M49.747,65.203v-7.107h4.292v7.107H52.86V59.04h-1.937v6.163H49.747z"/>
			<path fill="#77787B" d="M63.455,58.095h1.318l1.907,7.107h-1.189l-0.445-1.779h-2.087l-0.44,1.779h-1.122L63.455,58.095z
				 M64.812,62.498l-0.814-3.256l-0.808,3.256H64.812z"/>
			<path fill="#77787B" d="M82.819,58.095h1.175v3.391l2.145-3.391h1.247l-1.834,2.607l2.145,4.5h-1.273l-1.591-3.531l-0.838,1.2
				v2.331h-1.175V58.095z"/>
			<path fill="#77787B" d="M99.679,61.647c0,1.213-0.217,2.132-0.65,2.754c-0.435,0.622-1.064,0.932-1.891,0.932
				c-0.831,0-1.464-0.31-1.904-0.93c-0.441-0.62-0.664-1.537-0.664-2.756c0-1.208,0.22-2.125,0.658-2.747
				c0.437-0.622,1.072-0.935,1.906-0.935c0.821,0,1.453,0.309,1.889,0.926C99.462,59.516,99.679,60.432,99.679,61.647z
				 M98.443,61.648c0-0.841-0.096-1.508-0.293-1.994c-0.195-0.481-0.539-0.726-1.027-0.726c-0.49,0-0.834,0.244-1.025,0.728
				c-0.194,0.488-0.294,1.153-0.294,1.992c0,0.827,0.096,1.488,0.286,1.981c0.191,0.494,0.54,0.738,1.048,0.738
				c0.477,0,0.813-0.236,1.012-0.716C98.345,63.175,98.443,62.505,98.443,61.648z"/>
			<path fill="#77787B" d="M107.497,58.095h1.748l1.416,5.124l1.454-5.124h1.673v7.107h-1.104v-6.063l-1.689,6.063h-0.854
				l-1.659-6.069v6.069h-0.984V58.095z"/>
			<path fill="#77787B" d="M121.872,65.203v-7.107h4.291v7.107h-1.178V59.04h-1.938v6.163H121.872z"/>
			<path fill="#77787B" d="M135.578,58.095h1.321l1.907,7.107h-1.19l-0.447-1.779h-2.084l-0.44,1.779h-1.124L135.578,58.095z
				 M136.937,62.498l-0.814-3.256l-0.808,3.256H136.937z"/>
			<path fill="#77787B" d="M146.235,58.095h1.178v2.948h2.092v-2.948h1.176v7.107h-1.176V62.04h-2.092v3.163h-1.178V58.095z"/>
			<path fill="#77787B" d="M159.942,64.573v0.63h-1.178v-7.107h1.178v3.988c0,0.047-0.012,0.377-0.037,0.985
				c0.142-0.41,0.345-0.851,0.611-1.324l1.664-2.957v-0.692h1.177v7.107h-1.177v-3.687c0-0.034,0.012-0.443,0.038-1.223
				c-0.149,0.406-0.359,0.846-0.623,1.328L159.942,64.573z"/>
			<path fill="#77787B" d="M172.618,64.573v0.63h-1.178v-7.107h1.178v3.988c0,0.047-0.013,0.377-0.037,0.985
				c0.141-0.41,0.345-0.851,0.611-1.324l1.664-2.957v-0.692h1.178v7.107h-1.178v-3.687c0-0.034,0.011-0.443,0.037-1.223
				c-0.149,0.406-0.358,0.846-0.621,1.328L172.618,64.573z M172.169,56.153h0.729c0.107,0.39,0.398,0.583,0.871,0.583
				c0.465,0,0.749-0.193,0.857-0.583h0.735c-0.178,0.848-0.708,1.271-1.593,1.271C172.879,57.423,172.347,57,172.169,56.153z"/>
		</g>
	</g>
</g>
</svg>
