<?xml version="1.0" encoding="utf-8"?>
<!-- Generator: Adobe Illustrator 16.0.0, SVG Export Plug-In . SVG Version: 6.00 Build 0)  -->
<!DOCTYPE svg PUBLIC "-//W3C//DTD SVG 1.1//EN" "http://www.w3.org/Graphics/SVG/1.1/DTD/svg11.dtd">
<svg version="1.1" id="Слой_1" xmlns="http://www.w3.org/2000/svg" xmlns:xlink="http://www.w3.org/1999/xlink" x="0px" y="0px"
	 width="19.513px" height="26.961px" viewBox="0 0 19.513 26.961" enable-background="new 0 0 19.513 26.961" xml:space="preserve">
<path fill="#77787B" d="M17.686,18.401c1.556,1.556,1.556,4.101,0,5.656l-1.076,1.076c-1.556,1.556-4.101,1.555-5.656-0.001
	l-1.074-1.074c-1.556-1.556-1.555-4.102,0-5.657l1.074-1.075c1.556-1.555,4.101-1.555,5.657,0L17.686,18.401z"/>
<path fill="none" stroke="#F1F2F2" stroke-miterlimit="10" d="M17.686,18.401c1.556,1.556,1.556,4.101,0,5.656l-1.076,1.076
	c-1.556,1.556-4.101,1.555-5.656-0.001l-1.074-1.074c-1.556-1.556-1.555-4.102,0-5.657l1.074-1.075c1.556-1.555,4.101-1.555,5.657,0
	L17.686,18.401z"/>
<path d="M9.633,10.614c1.556,1.556,1.556,4.101,0,5.656l-1.075,1.075c-1.556,1.556-4.101,1.556-5.657-0.001l-1.074-1.074
	c-1.556-1.556-1.556-4.102,0-5.657l1.074-1.073c1.555-1.556,4.101-1.556,5.657,0L9.633,10.614z"/>
<path fill="none" stroke="#F1F2F2" stroke-miterlimit="10" d="M9.633,10.614c1.556,1.556,1.556,4.101,0,5.656l-1.075,1.075
	c-1.556,1.556-4.101,1.556-5.657-0.001l-1.074-1.074c-1.556-1.556-1.556-4.102,0-5.657l1.074-1.073c1.555-1.556,4.101-1.556,5.657,0
	L9.633,10.614z"/>
<path fill="#77787B" d="M17.346,2.902c1.556,1.556,1.556,4.102,0,5.657l-1.075,1.075c-1.556,1.556-4.101,1.556-5.656,0L9.539,8.559
	c-1.556-1.556-1.555-4.102,0-5.657l1.074-1.074c1.556-1.556,4.101-1.556,5.657,0L17.346,2.902z"/>
<path fill="none" stroke="#F1F2F2" stroke-miterlimit="10" d="M17.346,2.902c1.556,1.556,1.556,4.102,0,5.657l-1.075,1.075
	c-1.556,1.556-4.101,1.556-5.656,0L9.539,8.559c-1.556-1.556-1.555-4.102,0-5.657l1.074-1.074c1.556-1.556,4.101-1.556,5.657,0
	L17.346,2.902z"/>
</svg>
