<?xml version="1.0" encoding="utf-8"?>
<!-- Generator: Adobe Illustrator 16.0.0, SVG Export Plug-In . SVG Version: 6.00 Build 0)  -->
<!DOCTYPE svg PUBLIC "-//W3C//DTD SVG 1.1//EN" "http://www.w3.org/Graphics/SVG/1.1/DTD/svg11.dtd">
<svg version="1.1" id="Слой_1" xmlns="http://www.w3.org/2000/svg" xmlns:xlink="http://www.w3.org/1999/xlink" x="0px" y="0px"
	 width="79.268px" height="79.455px" viewBox="0 0 79.268 79.455" enable-background="new 0 0 79.268 79.455" xml:space="preserve">
<g>
	<g>
		<g>
			<polygon fill="#FF5046" points="79.268,34.522 79.268,79.455 0,0 45.145,0 			"/>
		</g>
	</g>
</g>
<line fill="none" x1="6.121" y1="-8.169" x2="86.129" y2="72.08"/>
<g enable-background="new    ">
	<path fill="#FFFFFF" d="M40.835,13.854l-4.402,8.38l-1.605-1.61l0.924-1.708l-2.063-2.068l-1.717,0.912l-1.31-1.314l8.442-4.328
		L40.835,13.854z M35.23,16.031l1.351,1.355l1.575-2.911L35.23,16.031z"/>
</g>
<g enable-background="new    ">
	<path fill="#FFFFFF" d="M44.977,18.008l-3.006,2.996l5.006-0.991l1.431,1.436l-3.816,0.74l-2.199,6.021l-1.645-1.649l1.506-4.047
		l-2.207,0.409l-1.467,1.463l-1.467-1.472l6.397-6.378L44.977,18.008z"/>
</g>
<g enable-background="new    ">
	<path fill="#FFFFFF" d="M43.207,29.029l6.397-6.379l1.467,1.472l-5.131,5.117l1.846,1.851l5.131-5.116l1.468,1.472l-5.132,5.116
		l0.785,0.787l-2.611,2.603l-0.999-1.003l1.224-1.462L43.207,29.029z"/>
</g>
<g enable-background="new    ">
	<path fill="#FFFFFF" d="M51.459,36.04l-0.633,0.631l-1.468-1.472l6.398-6.378l1.467,1.472l-2.725,2.716
		c-0.468,0.466-0.954,0.924-1.46,1.371c0.788-0.3,1.466-0.5,2.033-0.6l3.654-0.649l0.665-0.664l1.468,1.472l-6.397,6.379
		l-1.467-1.472l2.899-2.891c0.486-0.485,0.897-0.868,1.234-1.146c-0.683,0.276-1.359,0.472-2.032,0.589L51.459,36.04z"/>
</g>
<g enable-background="new    ">
	<path fill="#FFFFFF" d="M57.865,42.466l-0.633,0.631l-1.468-1.472l6.397-6.379l1.468,1.472l-2.725,2.717
		c-0.468,0.467-0.954,0.924-1.46,1.372c0.788-0.302,1.466-0.501,2.033-0.601l3.653-0.649l0.666-0.663l1.467,1.471l-6.396,6.379
		l-1.467-1.472l2.898-2.891c0.486-0.485,0.898-0.867,1.234-1.147c-0.681,0.276-1.357,0.473-2.031,0.59L57.865,42.466z"/>
</g>
</svg>
