<?xml version="1.0" encoding="utf-8"?>
<!-- Generator: Adobe Illustrator 16.0.0, SVG Export Plug-In . SVG Version: 6.00 Build 0)  -->
<!DOCTYPE svg PUBLIC "-//W3C//DTD SVG 1.1//EN" "http://www.w3.org/Graphics/SVG/1.1/DTD/svg11.dtd">
<svg version="1.1" id="Слой_1" xmlns="http://www.w3.org/2000/svg" xmlns:xlink="http://www.w3.org/1999/xlink" x="0px" y="0px"
	 width="35px" height="19px" viewBox="0 0 35 19" enable-background="new 0 0 35 19" xml:space="preserve">
<g>
	<path fill="#FF5000" d="M31.5,1C33.154,1,34,1.846,34,3.5v11c0,1.654-0.846,3.5-2.5,3.5h-27C2.846,18,1,16.154,1,14.5v-11
		C1,1.846,2.846,1,4.5,1H31 M31.5,0h-27C2.291,0,0,1.291,0,3.5v11C0,16.709,2.291,19,4.5,19h27c2.209,0,3.5-2.291,3.5-4.5v-11
		C35,1.291,33.709,0,31.5,0L31.5,0z"/>
</g>
<g>
	<path fill="none" stroke="#FF5000" stroke-linecap="round" stroke-miterlimit="10" d="M7.365,2.396c0,0,2.26,0,3.234,0
		c0.974,0,2.092,1.009,2.092,3.088c0,2.08,0,1.077,0,3.529c0,2.45,1.32,4.396,4.28,4.396c1.938,0,3.723,0,5.072,0
		c2.951,0,3.25-1.735,3.25-3.591c0-0.742,0.007-0.495,0.007-1.499c0-0.761-0.315-1.123-1.043-1.123"/>
	<ellipse fill="#FF5000" cx="14.27" cy="15.285" rx="1.122" ry="1.111"/>
	<ellipse fill="#FF5000" cx="23.499" cy="15.285" rx="1.121" ry="1.111"/>
</g>
</svg>
