<?xml version="1.0" encoding="utf-8"?>
<!-- Generator: Adobe Illustrator 16.0.0, SVG Export Plug-In . SVG Version: 6.00 Build 0)  -->
<!DOCTYPE svg PUBLIC "-//W3C//DTD SVG 1.1//EN" "http://www.w3.org/Graphics/SVG/1.1/DTD/svg11.dtd">
<svg version="1.1" id="Слой_1" xmlns="http://www.w3.org/2000/svg" xmlns:xlink="http://www.w3.org/1999/xlink" x="0px" y="0px"
	 width="45.379px" height="44px" viewBox="0 0 45.379 44" enable-background="new 0 0 45.379 44" xml:space="preserve">
<g id="Иконка_2_">
	<circle fill="none" stroke="#FFFFFF" stroke-miterlimit="10" cx="22" cy="22" r="21.5"/>
	<g>
		<path fill="none" stroke="#FFFFFF" stroke-miterlimit="10" d="M43.172,18.282c0.295-0.278,0.082-0.635-0.246-0.645
			c-0.271-0.01-0.666,0.183-0.871,0.338c-0.025-0.155-0.014-0.331-0.025-0.491c-0.195,0.102-0.773,0.158-0.811,0.483
			c-0.055,0.478,0.672,0.402,0.964,0.399c-0.159,0.053-0.327,0.082-0.489,0.125c-0.076,0.441,0.153,0.72,0.387,1.015
			c0.289,0.363,0.293,0.482,0.188,0.893c-0.118,0.467-0.191,0.945-0.427,1.365c-0.223,0.398-0.843,0.877-1.274,1.115
			c-0.382,0.213-0.957,0.148-1.381,0.084c-0.301-0.045-1.031-0.23-1.24,0.076c-0.145,0.211,0.115,0.805,0.209,0.986
			c0.172,0.336,0.465,0.535,0.717,0.805c0.873,0.938-0.782,1.143-1.052,1.83c-0.034-0.338-0.206-0.338-0.444-0.537
			c-0.145-0.115-0.213-0.457-0.398-0.561c-0.57-0.314-0.814,0.395-0.744,0.867c0.092,0.584,0.788,0.445,0.977,0.975
			c0.069,0.188-0.012,0.465,0.035,0.662c0.055,0.232,0.197,0.406,0.151,0.658c-0.515-0.041-0.663-0.805-0.937-1.166
			c-0.271-0.357-0.729-0.643-0.691-1.129c0.039-0.516,0.41-1.088,0.234-1.645c-0.063-0.201-0.289-0.471-0.51-0.424
			c-0.196,0.043-0.289,0.342-0.576,0.348c0.021-0.178,0.092-0.465,0.023-0.654c-0.098-0.27-0.349-0.293-0.498-0.479
			c-0.262-0.326-0.166-0.957-0.152-1.373c-0.246,0.219-0.301,0.627-0.586,0.721c-0.299,0.1-0.497-0.145-0.741,0.078
			c-0.152,0.139-0.215,0.484-0.356,0.658c-0.23,0.287-0.537,0.414-0.835,0.559c-0.198,0.096-0.628,0.238-0.718,0.418
			c-0.078,0.156,0,0.563,0.001,0.742c0,0.217,0.036,0.453-0.076,0.641c-0.169,0.285-0.437,0.297-0.515,0.678
			c-0.387,0.121-0.297-0.258-0.422-0.463c-0.109-0.18-0.278-0.184-0.361-0.426c-0.076-0.23-0.004-0.473-0.106-0.695
			c-0.075-0.156-0.255-0.234-0.318-0.4c-0.122-0.314-0.021-0.754-0.069-1.084c-0.049-0.326-0.111-1.063-0.393-0.549
			c-0.074,0.133,0.095,0.414-0.194,0.43c-0.214,0.014-0.195-0.219-0.278-0.354c-0.189-0.309-0.313-0.818-0.59-0.992
			c-0.3-0.188-0.847-0.119-1.197-0.174c-0.367-0.057-0.749-0.084-1.119-0.146c-0.379-0.066-0.586-0.297-0.944-0.359
			c-0.216-0.041-0.386,0.02-0.583-0.08c-0.231-0.113-0.193-0.234-0.34-0.391c-0.266-0.285-0.591-0.344-0.982-0.227
			c0.059,0.328,0.27,0.857,0.424,1.143c0.153,0.281,0.377,0.42,0.742,0.373c0.301-0.041,0.531-0.389,0.817-0.352
			c0.386,0.049,0.177,0.486,0.396,0.701c0.206,0.201,0.537,0.006,0.422,0.43c-0.079,0.291-0.517,0.805-0.741,1.02
			c-0.459,0.443-1.133,0.455-1.701,0.652c-0.346,0.119-0.541,0.182-0.824,0.4c-0.152,0.119-0.238,0.219-0.436,0.266
			c-0.625,0.139-0.48-0.24-0.457-0.666c0.025-0.482-0.195-0.623-0.553-0.951c-0.189-0.174-0.524-0.412-0.629-0.652
			c-0.076-0.18,0.033-0.404-0.035-0.576c-0.141-0.352-0.581-0.32-0.738-0.75c-0.155-0.42-0.093-0.75-0.658-0.568
			c-0.062,0.385,0.095,1.139,0.344,1.436c0.138,0.166,0.426,0.213,0.51,0.418c0.06,0.141-0.04,0.355,0.005,0.508
			c0.071,0.238,0.171,0.24,0.328,0.408c0.257,0.273,0.182,0.08,0.181,0.455c0,0.326-0.029,0.402,0.27,0.637
			c0.249,0.191,0.525,0.285,0.838,0.266c0.012,0.188,0,0.389,0.059,0.574c0.353,0.123,0.826,0.131,1.201,0.084
			c0.345-0.045,0.725-0.303,1.086-0.311c-0.076,0.822-1.098,1.75-1.66,2.285c-0.768,0.729-1.484,1.654-1.453,2.779
			c0.02,0.666,0.584,1.809,0.133,2.402c-0.357,0.473-1.129,0.359-1.456,0.83c-0.272,0.387-0.01,0.783-0.038,1.197
			c-0.033,0.455-0.581,0.814-0.811,1.248c-0.205,0.383-0.239,0.855-0.485,1.215c-0.468,0.689-1.104,0.543-1.831,0.662
			c-0.34,0.055-0.822,0.486-1.168,0.373c-0.475-0.156-0.25-0.754-0.381-1.084c-0.103-0.26-0.289-0.49-0.41-0.742
			c-0.129-0.268-0.292-0.52-0.428-0.781c-0.151-0.297-0.082-0.586-0.131-0.91c-0.047-0.318-0.198-0.525-0.395-0.768
			c-0.314-0.396-0.39-1.166-0.176-1.619c0.101-0.215,0.28-0.402,0.35-0.623c0.056-0.172,0.148-0.502,0.099-0.682
			c-0.044-0.166-0.194-0.264-0.234-0.428c-0.062-0.266-0.108-0.465-0.211-0.713c-0.114-0.281-0.28-0.516-0.44-0.773
			c-0.211-0.34-0.224-0.555-0.224-0.959c0-0.139,0.021-0.297-0.021-0.428c-0.035-0.121-0.133-0.477-0.213-0.553
			c-0.133-0.131-0.264,0.016-0.407,0.047c-0.157,0.037-0.45,0.094-0.603,0.061c-0.086-0.145-0.023-0.283-0.146-0.434
			c-0.122-0.15-0.262-0.17-0.441-0.184c-0.318-0.025-0.703,0.158-0.992,0.277c-0.123,0.053-0.242,0.137-0.375,0.166
			c-0.163,0.037-0.313-0.037-0.468-0.055c-0.241-0.023-0.47-0.02-0.703,0.051c-0.219,0.064-0.464,0.184-0.672,0.023
			c-0.206-0.158-0.369-0.318-0.61-0.426c-0.564-0.252-0.83-0.662-1.143-1.168c-0.136-0.221-0.295-0.355-0.357-0.6
			c-0.065-0.254-0.217-0.434-0.174-0.707c0.037-0.227,0.211-0.398,0.289-0.617c0.128-0.348,0.049-0.557-0.139-0.838
			c-0.402-0.605,0.533-0.908,0.854-1.313c0.157-0.199,0.302-0.461,0.427-0.689c0.068-0.123,0.082-0.219,0.205-0.277
			c0.119-0.061,0.316-0.047,0.41-0.162c0.067-0.082,0.067-0.254,0.099-0.357c0.052-0.184,0.124-0.362,0.178-0.541
			c0.072-0.24,0.231-0.473,0.478-0.563c0.096-0.036,0.22-0.027,0.316-0.079c0.111-0.058,0.162-0.135,0.282-0.173
			c0.352-0.113,0.75,0.124,1.082,0.023c0.226-0.072,0.418-0.277,0.662-0.331c0.604-0.136,1.207-0.435,1.852-0.352
			c0.223,0.028,0.456,0.041,0.481,0.286c0.025,0.258-0.063,0.437,0.117,0.659c0.26,0.321,0.746,0.39,1.075,0.637
			c0.353,0.262,0.876,0.702,1.216,0.235c0.116-0.161,0.197-0.408,0.372-0.478c0.212-0.086,0.628-0.022,0.828,0.058
			c0.486,0.2,0.916,0.547,1.475,0.551c0.097,0,0.197,0.006,0.294,0c0.158-0.01,0.203-0.08,0.332-0.119
			c0.101-0.031,0.303-0.006,0.407,0.002c0.082,0.008,0.265,0.088,0.336,0.059c0.138-0.055,0.192-0.397,0.245-0.526
			c0.09-0.21,0.163-0.422,0.217-0.647c0.06-0.255,0.057-0.394-0.226-0.385c-0.206,0.006-0.384,0.2-0.563,0.196
			c-0.098-0.003-0.22-0.128-0.316-0.157c-0.167-0.052-0.33-0.024-0.506-0.019c-0.372,0.007-0.559-0.067-0.805-0.352
			c-0.129-0.151-0.379-0.473-0.27-0.702c0.053-0.11,0.214-0.113,0.313-0.149c0.139-0.048,0.232-0.127,0.352-0.198
			c0.074-0.045,0.21-0.06,0.283-0.117c0.068-0.054,0.135-0.219,0.202-0.252c0.073-0.036,0.231-0.008,0.313-0.005
			c0.061,0.002,0.094,0.042,0.168,0.038c0.08-0.004,0.162-0.076,0.24-0.091c0.249-0.049,0.58-0.018,0.805,0.093
			c0.238,0.117,0.412,0.157,0.677,0.177c0.281,0.019,0.417-0.054,0.628-0.212c0.214-0.161,0.375-0.374,0.029-0.49
			c-0.378-0.127-1.15-0.356-0.775-0.887c0.072-0.102,0.484-0.48,0.127-0.478c-0.134,0.002-0.166,0.156-0.269,0.224
			c-0.081,0.053-0.169,0.05-0.263,0.075c-0.068,0.018-0.308,0.069-0.332,0.148c-0.044,0.147,0.207,0.071,0.15,0.266
			c-0.133,0.063-0.262,0.154-0.388,0.209c-0.165,0.069-0.157,0.063-0.276-0.055c-0.063-0.063-0.157-0.188-0.152-0.281
			c0.012-0.173,0.154-0.098,0.233-0.207c-0.157-0.1-0.33,0.007-0.486,0.03c-0.173,0.025-0.395-0.047-0.515,0.038
			c-0.162,0.113-0.217,0.465-0.283,0.641c-0.063,0.166-0.172,0.326-0.232,0.49c-0.041,0.107-0.076,0.142-0.022,0.233
			c0.059,0.101,0.22,0.004,0.114,0.171c-0.104,0.168-0.404,0.084-0.56,0.107c-0.331,0.049-0.966,0.152-0.856,0.635
			c0.569,0.116-0.094,0.585-0.142,0.857c-0.225,0.014-0.227-0.34-0.269-0.484c-0.066-0.228-0.207-0.377-0.414-0.501
			c-0.201-0.12-0.313-0.167-0.287-0.435c0.018-0.203,0.2-0.347,0.042-0.512c-0.163-0.17-0.534-0.237-0.746-0.34
			c-0.211-0.103-0.433-0.237-0.614-0.393c-0.154-0.131-0.417-0.442-0.572-0.119c-0.119,0.25,0.16,0.293,0.313,0.376
			c0.317,0.172,0.372,0.503,0.683,0.698c0.118,0.073,0.226,0.157,0.354,0.229c0.122,0.07,0.293,0.114,0.344,0.252
			c-0.106,0.023-0.242-0.096-0.329-0.057c-0.175,0.077-0.004,0.207,0.018,0.273c0.082,0.254-0.203,0.392-0.403,0.501
			c-0.019-0.224,0.226-0.368,0.057-0.598c-0.112-0.152-0.402-0.27-0.565-0.375c-0.188-0.124-0.395-0.218-0.565-0.359
			c-0.167-0.138-0.21-0.332-0.369-0.463c-0.157-0.129-0.39-0.173-0.591-0.186c-0.32-0.021-0.394,0.292-0.676,0.272
			c-0.261-0.018-0.376-0.21-0.561,0.077c-0.143,0.225-0.131,0.467-0.375,0.608c-0.217,0.128-0.531,0.223-0.656,0.465
			c-0.104,0.195,0.01,0.442-0.094,0.643c-0.139,0.272-0.513,0.245-0.769,0.311c-0.211,0.055-0.431,0.182-0.622,0.059
			c-0.104-0.067-0.08-0.12-0.216-0.157c-0.112-0.028-0.271,0.046-0.376,0.001c-0.178-0.072-0.178-0.42-0.189-0.603
			c-0.01-0.203-0.021-0.392-0.038-0.586c-0.008-0.082,0.016-0.172,0.001-0.253c-0.019-0.104-0.105-0.199-0.117-0.315
			c-0.015-0.121-0.023-0.313,0.021-0.419c0.526-0.077,1.039,0.126,1.598,0.093c0.242-0.014,0.737,0.031,0.816-0.254
			c0.035-0.124,0.006-0.349-0.037-0.463c-0.134-0.367-0.494-0.463-0.796-0.649c-0.125-0.078-0.372-0.217-0.214-0.356
			c0.145-0.13,0.572-0.012,0.758-0.055c0.246-0.056,0.404-0.294,0.576-0.448c0.206-0.183,0.462-0.265,0.671-0.448
			c0.295-0.26,0.632-0.479,0.956-0.711c0.108-0.079,0.081-0.088,0.211-0.121c0.099-0.026,0.254,0.025,0.328-0.06
			c0.125-0.14,0.001-0.469-0.035-0.607c-0.052-0.195-0.056-0.456,0.098-0.634c0.037-0.038,0.183-0.151,0.244-0.12
			c0.08,0.039,0.04,0.228,0.043,0.31c0.011,0.22,0.035,0.413,0.059,0.628c0.027,0.241,0.164,0.219,0.389,0.23
			c0.181,0.009,0.365-0.063,0.529-0.042c0.322,0.042,0.481,0.173,0.814,0.036c0.241-0.097,0.494-0.087,0.739-0.166
			c0.269-0.086,0.36-0.092,0.392-0.409c0.018-0.163-0.001-0.476,0.098-0.609c0.188-0.253,0.252,0.045,0.414,0.114
			c0.218,0.095,0.636-0.063,0.438-0.284c-0.023-0.025-0.1-0.003-0.137-0.041c-0.052-0.056-0.043-0.134-0.053-0.201
			c-0.014-0.109-0.01-0.22,0.043-0.306c0.191-0.317,0.497-0.139,0.775-0.158c0.142-0.009,0.695-0.088,0.623-0.302
			c-0.095-0.28-0.598,0.051-0.74,0.069c-0.22,0.028-0.484,0.033-0.701,0.019c-0.543-0.036-0.668-0.753-0.528-1.208
			c0.1-0.323,0.441-0.335,0.661-0.529c0.107-0.098,0.273-0.348,0.141-0.479c-0.092-0.089-0.392-0.042-0.512-0.042
			c-0.361,0-0.494,0.244-0.636,0.559c-0.128,0.286-0.235,0.464-0.495,0.668c-0.18,0.145-0.419,0.153-0.486,0.384
			c-0.06,0.209-0.051,0.521,0.142,0.624c0.088,0.048,0.159-0.033,0.23,0.066c0.035,0.05,0.021,0.327-0.001,0.379
			c-0.085,0.211-0.416,0.254-0.562,0.413c-0.169,0.184-0.026,0.513-0.206,0.746c-0.118,0.152-0.289,0.476-0.494,0.271
			c-0.113-0.112-0.229-0.354-0.313-0.488c-0.104-0.173-0.229-0.341-0.253-0.53c-0.024-0.209-0.003-0.508-0.306-0.535
			c-0.172-0.017-0.218,0.138-0.336,0.217c-0.115,0.076-0.354,0.17-0.49,0.164c-0.246-0.011-0.281-0.236-0.311-0.442
			c-0.078-0.534-0.041-1.059,0.4-1.411c0.491-0.391,1.395-0.525,1.729-1.104c0.199-0.345,0.269-0.752,0.467-1.104
			c0.166-0.296,0.452-0.446,0.771-0.566c0.311-0.115,0.578-0.311,0.891-0.418c0.253-0.087,0.474-0.135,0.713-0.257
			c0.331-0.169,0.674-0.256,1.057-0.184c0.357,0.067,0.764,0.317,1.087,0.479c0.321,0.162,0.641,0.243,0.977,0.372
			c0.396,0.149,1.377,0.76,1.042,1.323c-0.152,0.256-0.6,0.09-0.807,0.029c-0.334-0.099-0.69-0.134-1.02-0.256
			c-0.074,0.262-0.029,0.346,0.173,0.5c0.188,0.142,0.274,0.286,0.351,0.515c0.053,0.155,0.104,0.377,0.315,0.368
			c0.139-0.006,0.179-0.138,0.279-0.213c0.084-0.06,0.192-0.1,0.286-0.14c0.281-0.12,0.408-0.383,0.658-0.508
			c0.16-0.078,0.354-0.153,0.527-0.228c0.231-0.099,0.292-0.173,0.292-0.433c-0.001-0.204-0.108-0.614,0.175-0.584
			c0.275,0.026,0.164,0.463,0.178,0.678c0.334,0.018,0.559-0.043,0.825-0.245c0.253-0.193,0.513-0.476,0.822-0.567
			c0.216-0.063,0.425,0.069,0.647,0.077c0.207,0.004,0.412,0,0.619,0c0.271,0,0.537,0.018,0.807,0.018
			c0.152,0,0.219,0.03,0.305-0.094c0.075-0.109,0.025-0.17-0.049-0.223c-0.193-0.139-0.464-0.039-0.455-0.386
			c0.004-0.158,0.007-0.178,0.194-0.193c0.174-0.016,0.263,0.038,0.396,0.131c0.321,0.221,0.68,0.315,1.063,0.389
			c0.117,0.021,0.371,0.049,0.47,0.107c0.108,0.063,0.131,0.179,0.236,0.245c0.132,0.083,0.584,0.213,0.546-0.091
			c-0.032-0.235-0.507-0.189-0.637-0.392c-0.134-0.21,0-0.513,0.13-0.658c0.065-0.073,0.171-0.155,0.213-0.242
			c0.056-0.115,0.053-0.261,0.089-0.38c0.077-0.253,0.181-0.503,0.459-0.531c0.318-0.031,0.468,0.028,0.546,0.334
			c0.052,0.192,0.075,0.377,0.057,0.581c-0.014,0.135-0.087,0.28-0.09,0.41c-0.009,0.312,0.339,0.53,0.28,0.869
			c-0.037,0.216-0.194,0.602-0.355,0.751c-0.134,0.126-0.568,0.091-0.631,0.285c-0.059,0.182,0.162,0.198,0.286,0.195
			c0.31-0.004,0.948-0.191,1.036-0.543c0.033-0.137,0.074-0.711,0.292-0.723c0.123-0.006,0.128,0.207,0.198,0.282
			c0.13,0.141,0.299,0.093,0.461,0.126c0.038-0.623-0.879-0.298-1.027-0.744c-0.084-0.249,0.171-0.484,0.113-0.714
			c-0.039-0.163-0.22-0.11-0.197-0.314c0.027-0.229,0.295-0.344,0.424-0.479c0.037,0.174,0.019,0.197,0.106,0.35
			c0.054,0.092,0.089,0.224,0.153,0.306c0.055,0.071,0.183,0.225,0.294,0.154c0.204-0.127-0.048-0.25-0.095-0.327
			c-0.205-0.34,0.305-0.307,0.475-0.216c0.322,0.171,0.572,0.35,0.959,0.329c0.016-0.266-0.051-0.329-0.229-0.509
			c-0.166-0.169-0.513-0.474-0.152-0.674c0.255-0.143,0.49,0.097,0.73,0.162c0.388,0.105,0.822,0.07,1.004-0.322
			c0.088-0.189,0.129-0.431,0.287-0.582"/>
		<path fill="none" stroke="#FFFFFF" stroke-miterlimit="10" d="M21.235,33.873c0.002,0.174,0.149,0.299,0.158,0.475
			c0.015,0.285-0.084,0.27-0.187,0.5c-0.157,0.35-0.197,0.648,0.156,0.926c0.594,0.459,0.793-0.324,0.836-0.723
			c0.058-0.535,0.203-1.078,0.494-1.535c0.158-0.25,0.514-0.572,0.232-0.875c-0.306-0.324-0.34,0.01-0.526,0.143
			C21.955,33.093,21.232,33.103,21.235,33.873z"/>
		<path fill="none" stroke="#FFFFFF" stroke-miterlimit="10" d="M31.02,27.361c0.228,0.063,0.397-0.031,0.463-0.258
			c0.09-0.314-0.208-0.342-0.418-0.449C31.082,26.664,31.017,27.298,31.02,27.361z"/>
		<path fill="none" stroke="#FFFFFF" stroke-miterlimit="10" d="M35.854,28.583c0.322,0.422,0.626,0.691,1.011,1.068
			c0.253,0.25,0.564,1.152,0.934,0.639c0.302-0.42-0.09-0.629-0.376-0.824c-0.29-0.193-0.583-0.371-0.854-0.588
			c-0.344-0.279-0.443-0.734-0.711-1.068c-0.113-0.141-0.299-0.367-0.506-0.354C34.64,27.5,35.738,28.431,35.854,28.583z"/>
		<path fill="none" stroke="#FFFFFF" stroke-miterlimit="10" d="M8.308,11.46c0.147,0.005,0.386-0.05,0.466,0.091
			c0.138,0.24-0.291,0.521,0.133,0.669c0.116,0.042,0.219-0.007,0.285,0.116c0.04,0.07,0.013,0.163,0.05,0.231
			c0.045,0.079,0.104,0.1,0.145,0.183c0.08,0.166,0.109,0.241,0.264,0.372c0.078,0.069,0.18,0.099,0.196,0.22
			c0.021,0.15-0.092,0.114-0.125,0.225c-0.063,0.209-0.064,0.39-0.328,0.439c-0.322,0.061-0.495-0.046-0.826,0.101
			c-0.244,0.107-0.469,0.159-0.732,0.219c0.076-0.266,0.688-0.343,0.906-0.5c-0.083-0.366-0.749-0.233-0.267-0.646
			c0.202-0.171,0.193-0.009,0.159-0.291c-0.025-0.211-0.105-0.25-0.241-0.344c-0.157-0.11-0.194,0.002-0.256-0.241
			c-0.04-0.153,0.032-0.337-0.005-0.489c-0.039-0.161-0.162-0.386-0.109-0.553c0.09-0.282,0.971-0.359,0.527,0.005
			C8.521,11.288,8.328,11.46,8.308,11.46z"/>
		<path fill="none" stroke="#FFFFFF" stroke-miterlimit="10" d="M6.836,12.633c0.094-0.106,0.344-0.011,0.473-0.018
			c-0.002-0.141,0.125-0.303,0.275-0.319c0.11-0.013,0.24,0.033,0.338,0.077c0.015,0.1,0.037,0.185-0.03,0.271
			c-0.055,0.07-0.119,0.032-0.128,0.134c-0.006,0.07,0.07,0.135,0.088,0.205c0.021,0.093-0.003,0.179-0.055,0.247
			c-0.072,0.102-0.179,0.09-0.264,0.163c-0.086,0.072-0.082,0.154-0.205,0.201c-0.154,0.059-0.379,0.198-0.541,0.173
			c-0.004-0.114-0.008-0.17,0.057-0.258c0.053-0.075,0.163-0.086,0.207-0.142c0.093-0.114-0.08-0.204-0.152-0.313
			C6.826,12.951,6.727,12.755,6.836,12.633z"/>
	</g>
</g>
</svg>
