<?xml version="1.0" encoding="utf-8"?>
<!-- Generator: Adobe Illustrator 16.0.0, SVG Export Plug-In . SVG Version: 6.00 Build 0)  -->
<!DOCTYPE svg PUBLIC "-//W3C//DTD SVG 1.1//EN" "http://www.w3.org/Graphics/SVG/1.1/DTD/svg11.dtd">
<svg version="1.1" id="Слой_1" xmlns="http://www.w3.org/2000/svg" xmlns:xlink="http://www.w3.org/1999/xlink" x="0px" y="0px"
	 width="79.268px" height="79.455px" viewBox="0 0 79.268 79.455" enable-background="new 0 0 79.268 79.455" xml:space="preserve">
<g>
	<g>
		<g>
			<polygon fill="#8CC63F" points="79.268,34.522 79.268,79.455 0,0 45.145,0 			"/>
		</g>
	</g>
</g>
<g>
	<path fill="#FFFFFF" d="M33.578,19.37l6.397-6.378l1.467,1.472l-5.131,5.116l1.846,1.852l5.131-5.116l1.468,1.471l-5.133,5.116
		l0.785,0.788l-2.609,2.603l-1-1.003l1.223-1.463L33.578,19.37z"/>
	<path fill="#FFFFFF" d="M49.488,24.972l-3.036-3.048l-1.313,1.309l2.388,2.394l-1.205,1.202l-2.388-2.395l-1.396,1.392l3.037,3.047
		l-1.267,1.262l-4.556-4.57l6.398-6.378l4.555,4.57L49.488,24.972z"/>
	<path fill="#FFFFFF" d="M56.537,29.604l-6.397,6.377l-1.467-1.472l2.639-2.63l-1.99-1.997l-2.638,2.631l-1.468-1.472l6.397-6.378
		l1.467,1.472l-2.494,2.485l1.991,1.997l2.494-2.486L56.537,29.604z"/>
	<path fill="#FFFFFF" d="M51.475,37.321l6.397-6.378l1.468,1.473l-2.349,2.34l1.094,1.096c0.533,0.535,0.908,1.022,1.128,1.465
		c0.219,0.441,0.267,0.935,0.143,1.479c-0.124,0.545-0.405,1.034-0.842,1.471c-0.594,0.593-1.271,0.896-2.03,0.912
		c-0.759,0.016-1.524-0.363-2.298-1.139L51.475,37.321z M54.151,37.587l1.099,1.102c0.602,0.604,1.181,0.626,1.74,0.068
		s0.546-1.131-0.04-1.718l-1.121-1.125L54.151,37.587z M57.105,42.968l6.397-6.377l1.466,1.471l-6.396,6.378L57.105,42.968z"/>
</g>
</svg>
