<?xml version="1.0" encoding="utf-8"?>
<!-- Generator: Adobe Illustrator 16.0.0, SVG Export Plug-In . SVG Version: 6.00 Build 0)  -->
<!DOCTYPE svg PUBLIC "-//W3C//DTD SVG 1.1//EN" "http://www.w3.org/Graphics/SVG/1.1/DTD/svg11.dtd">
<svg version="1.1" id="Слой_1" xmlns="http://www.w3.org/2000/svg" xmlns:xlink="http://www.w3.org/1999/xlink" x="0px" y="0px"
	 width="79.268px" height="79.455px" viewBox="0 0 79.268 79.455" enable-background="new 0 0 79.268 79.455" xml:space="preserve">
<g>
	<polygon fill="#FFB838" points="79,34.522 79,79.455 0,0.456 45.145,0.456 	"/>
</g>
<g>
	<path fill="#FFFFFF" d="M36.251,9.257l-6.397,6.377l-1.468-1.472l2.639-2.631l-1.99-1.997l-2.638,2.63l-1.469-1.471l6.397-6.378
		l1.468,1.473L30.3,8.275l1.989,1.996l2.494-2.485L36.251,9.257z"/>
	<path fill="#FFFFFF" d="M33.421,19.41c-0.858-0.862-1.2-1.851-1.022-2.967c0.176-1.116,0.725-2.131,1.644-3.048
		c0.934-0.932,1.951-1.47,3.053-1.615c1.101-0.145,2.091,0.224,2.972,1.107c0.89,0.893,1.229,1.899,1.014,3.019
		c-0.214,1.119-0.751,2.106-1.61,2.964c-0.926,0.924-1.942,1.471-3.047,1.639C35.318,20.676,34.318,20.309,33.421,19.41z
		 M38.835,14.098c-0.784-0.786-1.865-0.49-3.247,0.887c-1.384,1.38-1.685,2.462-0.901,3.248c0.759,0.762,1.829,0.453,3.21-0.924
		C39.279,15.93,39.593,14.859,38.835,14.098z"/>
	<path fill="#FFFFFF" d="M43.653,16.683l2.972,2.979c0.533,0.535,0.867,1.002,1.005,1.401c0.136,0.399,0.169,0.808,0.101,1.226
		c-0.069,0.418-0.278,0.801-0.627,1.15c-0.71,0.706-1.565,0.793-2.569,0.262c0.343,0.542,0.476,1.074,0.399,1.592
		c-0.076,0.517-0.288,0.951-0.639,1.3c-0.479,0.477-1.073,0.708-1.782,0.692c-0.711-0.015-1.473-0.43-2.285-1.246l-2.972-2.979
		L43.653,16.683z M41.474,21.836l-1.541,1.536l1.146,1.151c0.392,0.394,0.737,0.602,1.036,0.627c0.3,0.025,0.572-0.085,0.819-0.331
		c0.206-0.206,0.307-0.462,0.301-0.767c-0.006-0.306-0.188-0.64-0.55-1.001L41.474,21.836z M44.014,19.303l-1.4,1.397l1.131,1.135
		c0.414,0.415,0.757,0.595,1.028,0.539c0.272-0.056,0.482-0.158,0.633-0.308c0.162-0.162,0.257-0.346,0.285-0.552
		c0.029-0.206,0.005-0.377-0.071-0.513s-0.271-0.36-0.581-0.673L44.014,19.303z"/>
	<path fill="#FFFFFF" d="M45.586,30.148l-0.633,0.631l-1.468-1.473l6.397-6.377l1.468,1.472l-2.726,2.716
		c-0.467,0.467-0.953,0.924-1.459,1.372c0.788-0.302,1.466-0.502,2.033-0.601l3.653-0.649l0.666-0.664l1.467,1.473l-6.398,6.377
		l-1.466-1.472l2.899-2.89c0.486-0.485,0.897-0.868,1.234-1.147c-0.683,0.276-1.359,0.472-2.031,0.59L45.586,30.148z"/>
	<path fill="#FFFFFF" d="M61.203,34.283l-6.397,6.378l-1.467-1.472l2.64-2.631l-1.991-1.996l-2.639,2.63l-1.468-1.472l6.397-6.377
		l1.467,1.472l-2.492,2.486l1.989,1.995l2.494-2.485L61.203,34.283z"/>
	<path fill="#FFFFFF" d="M63.944,37.032l-3.006,2.996l5.005-0.991l1.429,1.435l-3.814,0.741l-2.197,6.021l-1.646-1.65l1.506-4.047
		l-2.207,0.41l-1.466,1.462l-1.467-1.471l6.397-6.379L63.944,37.032z"/>
	<path fill="#FFFFFF" d="M64.211,48.83l-0.632,0.631l-1.468-1.472l6.396-6.377l1.468,1.471l-2.725,2.716
		c-0.468,0.467-0.955,0.924-1.46,1.372c0.788-0.301,1.466-0.502,2.033-0.601l3.653-0.649l0.666-0.663l1.467,1.471l-6.396,6.379
		l-1.469-1.473l2.9-2.89c0.486-0.485,0.898-0.867,1.234-1.146c-0.683,0.275-1.359,0.472-2.031,0.589L64.211,48.83z"/>
</g>
</svg>
