<?xml version="1.0" encoding="utf-8"?>
<!-- Generator: Adobe Illustrator 16.0.0, SVG Export Plug-In . SVG Version: 6.00 Build 0)  -->
<!DOCTYPE svg PUBLIC "-//W3C//DTD SVG 1.1//EN" "http://www.w3.org/Graphics/SVG/1.1/DTD/svg11.dtd">
<svg version="1.1" id="Слой_1" xmlns="http://www.w3.org/2000/svg" xmlns:xlink="http://www.w3.org/1999/xlink" x="0px" y="0px"
	 width="57.5px" height="57.518px" viewBox="0 0 57.5 57.518" enable-background="new 0 0 57.5 57.518" xml:space="preserve">
<g>
	<g>
		
			<image overflow="visible" opacity="0.15" width="152" height="152" xlink:href="B38A7B6E.png"  transform="matrix(0.24 0 0 0.24 0.1611 0.333)">
		</image>
		<g>
			<path fill="#77787B" d="M11.661,25.275c-2.2,0-4-1.8-4-4v-9.442c0-2.2,1.8-4,4-4h9.458c2.2,0,4,1.8,4,4v9.442c0,2.2-1.8,4-4,4
				H11.661z"/>
			<path fill="none" stroke="#FFFFFF" stroke-miterlimit="10" d="M11.661,25.275c-2.2,0-4-1.8-4-4v-9.442c0-2.2,1.8-4,4-4h9.458
				c2.2,0,4,1.8,4,4v9.442c0,2.2-1.8,4-4,4H11.661z"/>
		</g>
	</g>
	<g>
		
			<image overflow="visible" opacity="0.15" width="152" height="152" xlink:href="B38A7B72.png"  transform="matrix(0.24 0 0 0.24 20.7007 0.332)">
		</image>
		<g>
			<path d="M32.201,25.275c-2.2,0-4-1.8-4-4v-9.443c0-2.2,1.8-4,4-4h9.461c2.2,0,4,1.8,4,4v9.443c0,2.2-1.8,4-4,4H32.201z"/>
			<path fill="none" stroke="#FFFFFF" stroke-miterlimit="10" d="M32.201,25.275c-2.2,0-4-1.8-4-4v-9.443c0-2.2,1.8-4,4-4h9.461
				c2.2,0,4,1.8,4,4v9.443c0,2.2-1.8,4-4,4H32.201z"/>
		</g>
	</g>
	<g>
		
			<image overflow="visible" opacity="0.15" width="152" height="152" xlink:href="B38A7B75.png"  transform="matrix(0.24 0 0 0.24 20.7007 20.7188)">
		</image>
		<g>
			<path fill="#FF5000" d="M32.201,45.661c-2.2,0-4-1.8-4-4v-9.442c0-2.2,1.8-4,4-4h9.461c2.2,0,4,1.8,4,4v9.442c0,2.2-1.8,4-4,4
				H32.201z"/>
			<path fill="none" stroke="#FFFFFF" stroke-miterlimit="10" d="M32.201,45.661c-2.2,0-4-1.8-4-4v-9.442c0-2.2,1.8-4,4-4h9.461
				c2.2,0,4,1.8,4,4v9.442c0,2.2-1.8,4-4,4H32.201z"/>
		</g>
	</g>
</g>
</svg>
