<?xml version="1.0" encoding="utf-8"?>
<!-- Generator: Adobe Illustrator 16.0.0, SVG Export Plug-In . SVG Version: 6.00 Build 0)  -->
<!DOCTYPE svg PUBLIC "-//W3C//DTD SVG 1.1//EN" "http://www.w3.org/Graphics/SVG/1.1/DTD/svg11.dtd">
<svg version="1.1" id="Слой_1" xmlns="http://www.w3.org/2000/svg" xmlns:xlink="http://www.w3.org/1999/xlink" x="0px" y="0px"
	 width="35px" height="19px" viewBox="0 0 35 19" enable-background="new 0 0 35 19" xml:space="preserve">
<g>
	<path fill="#FF5000" d="M35,15c0,2.209-1.791,4-4,4H4c-2.209,0-4-1.791-4-4V4c0-2.209,1.791-4,4-4h27c2.209,0,4,1.791,4,4V15z"/>
	<g>
		<path fill="none" stroke="#FFFFFF" stroke-linecap="round" stroke-miterlimit="10" d="M7.365,3.396c0,0,2.26,0,3.234,0
			c0.974,0,2.092,1.009,2.092,3.088c0,2.08,0,1.077,0,3.529c0,2.45,1.319,4.396,4.28,4.396c1.938,0,3.723,0,5.072,0
			c2.951,0,3.25-1.735,3.25-3.591c0-0.742,0.007-0.495,0.007-1.499c0-0.761-0.315-1.123-1.043-1.123"/>
		<ellipse fill="#FFFFFF" cx="14.27" cy="16.285" rx="1.122" ry="1.111"/>
		<ellipse fill="#FFFFFF" cx="23.499" cy="16.285" rx="1.121" ry="1.111"/>
	</g>
</g>
</svg>
