<?xml version="1.0" encoding="utf-8"?>
<!-- Generator: Adobe Illustrator 16.0.0, SVG Export Plug-In . SVG Version: 6.00 Build 0)  -->
<!DOCTYPE svg PUBLIC "-//W3C//DTD SVG 1.1//EN" "http://www.w3.org/Graphics/SVG/1.1/DTD/svg11.dtd">
<svg version="1.1" id="Слой_1" xmlns="http://www.w3.org/2000/svg" xmlns:xlink="http://www.w3.org/1999/xlink" x="0px" y="0px"
	 width="19.513px" height="26.961px" viewBox="0 0 19.513 26.961" enable-background="new 0 0 19.513 26.961" xml:space="preserve">
<path fill="#FF5000" d="M1.828,8.56c-1.556-1.556-1.556-4.101,0-5.656l1.076-1.076C4.459,0.271,7.004,0.272,8.56,1.828l1.074,1.074
	c1.556,1.556,1.555,4.102,0,5.657L8.56,9.635c-1.556,1.555-4.101,1.555-5.657,0L1.828,8.56z"/>
<path fill="none" stroke="#F1F2F2" stroke-miterlimit="10" d="M1.828,8.56c-1.556-1.556-1.556-4.101,0-5.656l1.076-1.076
	C4.459,0.271,7.004,0.272,8.56,1.828l1.074,1.074c1.556,1.556,1.555,4.102,0,5.657L8.56,9.635c-1.556,1.555-4.101,1.555-5.657,0
	L1.828,8.56z"/>
<path d="M9.88,16.347c-1.556-1.556-1.556-4.102,0-5.656l1.075-1.075c1.556-1.556,4.101-1.556,5.657,0.001l1.074,1.073
	c1.556,1.556,1.556,4.102,0,5.657l-1.074,1.073c-1.555,1.556-4.101,1.557-5.657,0.001L9.88,16.347z"/>
<path fill="none" stroke="#F1F2F2" stroke-miterlimit="10" d="M9.88,16.347c-1.556-1.556-1.556-4.102,0-5.656l1.075-1.075
	c1.556-1.556,4.101-1.556,5.657,0.001l1.074,1.073c1.556,1.556,1.556,4.102,0,5.657l-1.074,1.073
	c-1.555,1.556-4.101,1.557-5.657,0.001L9.88,16.347z"/>
<path fill="#FF5000" d="M2.167,24.059c-1.556-1.556-1.556-4.102,0-5.657l1.075-1.075c1.556-1.556,4.101-1.556,5.656,0l1.075,1.075
	c1.556,1.556,1.555,4.102,0,5.657l-1.074,1.074c-1.556,1.556-4.101,1.556-5.657,0L2.167,24.059z"/>
<path fill="none" stroke="#F1F2F2" stroke-miterlimit="10" d="M2.167,24.059c-1.556-1.556-1.556-4.102,0-5.657l1.075-1.075
	c1.556-1.556,4.101-1.556,5.656,0l1.075,1.075c1.556,1.556,1.555,4.102,0,5.657l-1.074,1.074c-1.556,1.556-4.101,1.556-5.657,0
	L2.167,24.059z"/>
</svg>
