<?xml version="1.0" encoding="utf-8"?>
<!-- Generator: Adobe Illustrator 16.0.0, SVG Export Plug-In . SVG Version: 6.00 Build 0)  -->
<!DOCTYPE svg PUBLIC "-//W3C//DTD SVG 1.1//EN" "http://www.w3.org/Graphics/SVG/1.1/DTD/svg11.dtd">
<svg version="1.1" id="Слой_1" xmlns="http://www.w3.org/2000/svg" xmlns:xlink="http://www.w3.org/1999/xlink" x="0px" y="0px"
	 width="58.045px" height="43.939px" viewBox="0 0 58.045 43.939" enable-background="new 0 0 58.045 43.939" xml:space="preserve">
<g id="Иконка_1_">
	<g>
		<path fill="none" stroke="#FFFFFF" stroke-miterlimit="10" d="M25.449,16.596C21.465,23.289,23.943,30.5,23.943,30.5H0.5v-30h34
			v9.432C34.5,9.932,28.365,11.52,25.449,16.596z"/>
		<rect x="8.5" y="0.5" fill="none" stroke="#FFFFFF" stroke-miterlimit="10" width="9" height="5"/>
		<g>
			<polyline fill="none" stroke="#FFFFFF" stroke-linecap="round" stroke-miterlimit="10" points="13.214,22.68 14.383,21.256 
				15.65,22.832 			"/>
			<line fill="none" stroke="#FFFFFF" stroke-linecap="round" stroke-miterlimit="10" x1="14.5" y1="22" x2="14.5" y2="28"/>
		</g>
		<g>
			<polyline fill="none" stroke="#FFFFFF" stroke-linecap="round" stroke-miterlimit="10" points="8.456,22.68 9.624,21.256 
				10.892,22.832 			"/>
			<line fill="none" stroke="#FFFFFF" stroke-linecap="round" stroke-miterlimit="10" x1="9.5" y1="22" x2="9.5" y2="28"/>
		</g>
	</g>
	<g>
		<g>
			
				<ellipse fill="none" stroke="#FFFFFF" stroke-linecap="round" stroke-miterlimit="10" cx="37.887" cy="24.539" rx="14.984" ry="15.049"/>
			
				<line fill="none" stroke="#FFFFFF" stroke-linecap="round" stroke-miterlimit="10" x1="48.883" y1="34.738" x2="57.545" y2="43.439"/>
		</g>
	</g>
	<polyline fill="none" stroke="#FFFFFF" stroke-miterlimit="10" points="36.5,10 36.5,31.5 25,31.5 	"/>
</g>
</svg>
