<?xml version="1.0" encoding="utf-8"?>
<!-- Generator: Adobe Illustrator 16.0.0, SVG Export Plug-In . SVG Version: 6.00 Build 0)  -->
<!DOCTYPE svg PUBLIC "-//W3C//DTD SVG 1.1//EN" "http://www.w3.org/Graphics/SVG/1.1/DTD/svg11.dtd">
<svg version="1.1" id="Слой_1" xmlns="http://www.w3.org/2000/svg" xmlns:xlink="http://www.w3.org/1999/xlink" x="0px" y="0px"
	 width="30px" height="23px" viewBox="0 0 30 23" enable-background="new 0 0 30 23" xml:space="preserve">
<g>
	<g>
		<g>
			<path fill="none" stroke="#000000" stroke-linecap="round" stroke-linejoin="round" stroke-miterlimit="10" d="M29.5,3.5
				c0,1.1-0.9,2-2,2h-25c-1.1,0-2-0.9-2-2v-1c0-1.1,0.9-2,2-2h25c1.1,0,2,0.9,2,2V3.5z"/>
		</g>
		<g>
			<path fill="none" stroke="#000000" stroke-linecap="round" stroke-linejoin="round" stroke-miterlimit="10" d="M29.5,11.5
				c0,1.1-0.9,2-2,2h-25c-1.1,0-2-0.9-2-2l0,0c0-1.1,0.9-2,2-2h25C28.6,9.5,29.5,10.4,29.5,11.5L29.5,11.5z"/>
		</g>
		<g>
			<path fill="none" stroke="#000000" stroke-linecap="round" stroke-linejoin="round" stroke-miterlimit="10" d="M29.5,20.5
				c0,1.1-0.9,2-2,2h-25c-1.1,0-2-0.9-2-2v-1c0-1.1,0.9-2,2-2h25c1.1,0,2,0.9,2,2V20.5z"/>
		</g>
	</g>
</g>
</svg>
