<?xml version="1.0" encoding="utf-8"?>
<!-- Generator: Adobe Illustrator 16.0.0, SVG Export Plug-In . SVG Version: 6.00 Build 0)  -->
<!DOCTYPE svg PUBLIC "-//W3C//DTD SVG 1.1//EN" "http://www.w3.org/Graphics/SVG/1.1/DTD/svg11.dtd">
<svg version="1.1" id="Слой_1" xmlns="http://www.w3.org/2000/svg" xmlns:xlink="http://www.w3.org/1999/xlink" x="0px" y="0px"
	 width="36.097px" height="32.588px" viewBox="0 0 36.097 32.588" enable-background="new 0 0 36.097 32.588" xml:space="preserve">
<g id="Иконка_ЛИчный_кабинет">
	
		<ellipse fill="none" stroke="#FF5000" stroke-linecap="round" stroke-miterlimit="10" cx="17.618" cy="12.688" rx="10.328" ry="12.188"/>
	<path fill="none" stroke="#FF5000" stroke-linecap="round" stroke-miterlimit="10" d="M7.646,9.38
		c1.917,2.344,12.778,2.011,12.778,2.011s-2.271-2.347-1.916-4.442c0.354-2.093,3.123,3.267,5.322,3.353
		c2.201,0.085,3.719-0.967,3.719-0.967"/>
	<path fill="none" stroke="#FF5000" stroke-linecap="round" stroke-miterlimit="10" d="M14.354,18.971
		c0,0.586,1.313,1.508,2.983,1.508c1.666,0,3.158-0.669,3.158-1.508"/>
	<path fill="none" stroke="#FF5000" stroke-linecap="round" stroke-miterlimit="10" d="M10.351,25.218
		c-5.355,0-9.851,6.87-9.851,6.87"/>
	<path fill="none" stroke="#FF5000" stroke-linecap="round" stroke-miterlimit="10" d="M25.75,25.218c5.355,0,9.848,6.87,9.848,6.87
		"/>
</g>
</svg>
