<?xml version="1.0" encoding="utf-8"?>
<!-- Generator: Adobe Illustrator 16.0.0, SVG Export Plug-In . SVG Version: 6.00 Build 0)  -->
<!DOCTYPE svg PUBLIC "-//W3C//DTD SVG 1.1//EN" "http://www.w3.org/Graphics/SVG/1.1/DTD/svg11.dtd">
<svg version="1.1" id="Слой_1" xmlns="http://www.w3.org/2000/svg" xmlns:xlink="http://www.w3.org/1999/xlink" x="0px" y="0px"
	 width="74.001px" height="44px" viewBox="0 0 74.001 44" enable-background="new 0 0 74.001 44" xml:space="preserve">
<g id="Иконка_3_">
	<polyline fill="none" stroke="#FFFFFF" stroke-miterlimit="10" points="8.5,15 8.5,0.5 49.5,0.5 49.5,34.5 36,34.5 	"/>
	<rect x="0.5" y="15.5" fill="none" stroke="#FFFFFF" stroke-miterlimit="10" width="35" height="28"/>
	<rect x="11.5" y="15.5" fill="none" stroke="#FFFFFF" stroke-miterlimit="10" width="11" height="5"/>
	<line fill="none" stroke="#FFFFFF" stroke-miterlimit="10" x1="54" y1="34.5" x2="49" y2="34.5"/>
	<path fill="none" stroke="#FFFFFF" stroke-miterlimit="10" d="M54,34.5"/>
	<path fill="none" stroke="#FFFFFF" stroke-miterlimit="10" d="M65,34.5"/>
	<path fill="none" stroke="#FFFFFF" stroke-miterlimit="10" d="M49,11.5h10.049c0,0,3.842-0.78,5.717,2.874
		c1.876,3.657,7.031,14.126,7.031,14.126H73.5v4.329c0,0,0.172,1.671-3.391,1.671c-1.05,0-5.109,0-5.109,0"/>
	<path fill="none" stroke="#FFFFFF" stroke-miterlimit="10" d="M64.86,34.843c0,3.081-2.497,5.579-5.578,5.579
		c-3.08,0-5.577-2.498-5.577-5.579c0-0.115,0.003-0.229,0.01-0.343c0.177-2.92,2.603-5.233,5.567-5.233
		c2.966,0,5.392,2.314,5.568,5.233C64.857,34.613,64.86,34.728,64.86,34.843z"/>
	<g>
		<polyline fill="none" stroke="#FFFFFF" stroke-linecap="round" stroke-miterlimit="10" points="11.246,32.849 12.753,31.019 
			14.39,33.043 		"/>
		<line fill="none" stroke="#FFFFFF" stroke-linecap="round" stroke-miterlimit="10" x1="12.5" y1="32" x2="12.5" y2="39"/>
	</g>
	<g>
		<polyline fill="none" stroke="#FFFFFF" stroke-linecap="round" stroke-miterlimit="10" points="5.103,32.849 6.611,31.019 
			8.248,33.043 		"/>
		<line fill="none" stroke="#FFFFFF" stroke-linecap="round" stroke-miterlimit="10" x1="6.5" y1="32" x2="6.5" y2="39"/>
	</g>
</g>
</svg>
