<?xml version="1.0" encoding="utf-8"?>
<!-- Generator: Adobe Illustrator 16.0.0, SVG Export Plug-In . SVG Version: 6.00 Build 0)  -->
<!DOCTYPE svg PUBLIC "-//W3C//DTD SVG 1.1//EN" "http://www.w3.org/Graphics/SVG/1.1/DTD/svg11.dtd">
<svg version="1.1" id="Слой_1" xmlns="http://www.w3.org/2000/svg" xmlns:xlink="http://www.w3.org/1999/xlink" x="0px" y="0px"
	 width="20px" height="20px" viewBox="0 0 20 20" enable-background="new 0 0 20 20" xml:space="preserve">
<path fill="#FFB838" d="M20,18c0,1.104-0.896,2-2,2H2c-1.104,0-2-0.896-2-2V2c0-1.104,0.896-2,2-2h16c1.104,0,2,0.896,2,2V18z"/>
<g>
	<path fill="#FFFFFF" d="M3.595,12.422V7.578h0.683l1.553,2.45c0.359,0.568,0.64,1.078,0.869,1.574l0.015-0.007
		c-0.058-0.647-0.071-1.236-0.071-1.991V7.578h0.589v4.844H6.6L5.061,9.964C4.724,9.425,4.4,8.871,4.155,8.347L4.134,8.354
		c0.036,0.61,0.051,1.192,0.051,1.997v2.07H3.595z"/>
	<path fill="#FFFFFF" d="M10.828,10.15H8.944v1.747h2.099v0.524H8.319V7.578h2.616v0.524H8.944v1.531h1.884V10.15z"/>
	<path fill="#FFFFFF" d="M12.707,12.422l-1.229-4.844h0.661l0.575,2.45c0.144,0.604,0.272,1.208,0.359,1.675h0.014
		c0.079-0.481,0.23-1.057,0.396-1.682l0.646-2.443h0.654l0.589,2.458c0.137,0.574,0.267,1.149,0.338,1.66h0.015
		c0.101-0.532,0.237-1.071,0.388-1.675l0.641-2.443h0.639l-1.372,4.844h-0.654l-0.61-2.522c-0.151-0.618-0.252-1.093-0.316-1.581
		h-0.015C14.339,8.8,14.23,9.274,14.051,9.899l-0.689,2.522H12.707z"/>
</g>
</svg>
