<?xml version="1.0" encoding="utf-8"?>
<!-- Generator: Adobe Illustrator 16.0.0, SVG Export Plug-In . SVG Version: 6.00 Build 0)  -->
<!DOCTYPE svg PUBLIC "-//W3C//DTD SVG 1.1//EN" "http://www.w3.org/Graphics/SVG/1.1/DTD/svg11.dtd">
<svg version="1.1" id="Слой_1" xmlns="http://www.w3.org/2000/svg" xmlns:xlink="http://www.w3.org/1999/xlink" x="0px" y="0px"
	 width="64.002px" height="44.035px" viewBox="0 0 64.002 44.035" enable-background="new 0 0 64.002 44.035" xml:space="preserve">
<g id="Иконка_5_">
	<path fill="none" stroke="#FFFFFF" stroke-linecap="round" stroke-linejoin="round" stroke-miterlimit="10" d="M55.999,39.687
		c0,0,3.556,0,4.413,0c3.266,0,3.087-3.124,3.087-3.124v-2.871h-1.54c0,0-4.725-10.798-6.441-14.144
		c-1.72-3.349-5.241-3.843-5.241-3.843H39.5v23.981H45"/>
	
		<circle fill="none" stroke="#FFFFFF" stroke-linecap="round" stroke-linejoin="round" stroke-miterlimit="10" cx="50.491" cy="38.41" r="5.108"/>
	<polyline fill="none" stroke="#FFFFFF" stroke-linecap="round" stroke-linejoin="round" stroke-miterlimit="10" points="7,39.687 
		1.501,39.687 1.501,32.691 39.5,32.691 39.5,39.687 17,39.687 	"/>
	
		<circle fill="none" stroke="#FFFFFF" stroke-linecap="round" stroke-linejoin="round" stroke-miterlimit="10" cx="12.002" cy="38.41" r="5.108"/>
	
		<rect x="2.501" y="13.707" fill="none" stroke="#FFFFFF" stroke-linecap="round" stroke-linejoin="round" stroke-miterlimit="10" width="30.999" height="18.985"/>
	
		<rect x="0.501" y="8.71" fill="none" stroke="#FFFFFF" stroke-linecap="round" stroke-linejoin="round" stroke-miterlimit="10" width="36.999" height="4.996"/>
	
		<rect x="16.5" y="8.71" fill="none" stroke="#FFFFFF" stroke-linecap="round" stroke-linejoin="round" stroke-miterlimit="10" width="5" height="23.981"/>
	<path fill="none" stroke="#FFFFFF" stroke-linecap="round" stroke-linejoin="round" stroke-miterlimit="10" d="M17.287,8.71
		c0,0-9.623-6.87-3.437-7.899c6.185-1.029,5.499,7.899,5.499,7.899H17.287z"/>
	<path fill="none" stroke="#FFFFFF" stroke-linecap="round" stroke-linejoin="round" stroke-miterlimit="10" d="M23.014,8.71
		c0,0,11.109-6.234,5.498-7.983c-5.611-1.749-8.65,7.983-8.65,7.983H23.014z"/>
</g>
</svg>
