<?xml version="1.0" encoding="utf-8"?>
<!-- Generator: Adobe Illustrator 16.0.0, SVG Export Plug-In . SVG Version: 6.00 Build 0)  -->
<!DOCTYPE svg PUBLIC "-//W3C//DTD SVG 1.1//EN" "http://www.w3.org/Graphics/SVG/1.1/DTD/svg11.dtd">
<svg version="1.1" id="Слой_1" xmlns="http://www.w3.org/2000/svg" xmlns:xlink="http://www.w3.org/1999/xlink" x="0px" y="0px"
	 width="20px" height="20px" viewBox="0 0 20 20" enable-background="new 0 0 20 20" xml:space="preserve">
<path fill="#FF5046" d="M20,18c0,1.104-0.896,2-2,2H2c-1.104,0-2-0.896-2-2V2c0-1.104,0.896-2,2-2h16c1.104,0,2,0.896,2,2V18z"/>
<path fill="none" stroke="#FFFFFF" stroke-miterlimit="10" d="M6.432,10.664c-0.879,0-1.557-0.332-2.031-0.992
	c-0.476-0.66-0.713-1.47-0.713-2.426c0-0.971,0.235-1.787,0.708-2.447c0.472-0.66,1.153-0.991,2.046-0.991
	c0.885,0,1.567,0.329,2.046,0.986s0.718,1.468,0.718,2.432c0,0.983-0.241,1.802-0.723,2.456C8,10.336,7.316,10.664,6.432,10.664z
	 M13.575,17.333c-0.884,0-1.563-0.331-2.038-0.991s-0.711-1.473-0.711-2.437c0-0.97,0.235-1.784,0.707-2.44
	c0.471-0.658,1.154-0.987,2.052-0.987c0.884,0,1.564,0.331,2.042,0.991s0.717,1.47,0.717,2.428c0,0.982-0.241,1.801-0.722,2.455
	C15.141,17.006,14.459,17.333,13.575,17.333z"/>
<line fill="none" stroke="#FFFFFF" stroke-linecap="round" stroke-miterlimit="10" x1="5" y1="17.333" x2="15.142" y2="4.178"/>
</svg>
