<?xml version="1.0" encoding="utf-8"?>
<!-- Generator: Adobe Illustrator 16.0.0, SVG Export Plug-In . SVG Version: 6.00 Build 0)  -->
<!DOCTYPE svg PUBLIC "-//W3C//DTD SVG 1.1//EN" "http://www.w3.org/Graphics/SVG/1.1/DTD/svg11.dtd">
<svg version="1.1" id="Слой_1" xmlns="http://www.w3.org/2000/svg" xmlns:xlink="http://www.w3.org/1999/xlink" x="0px" y="0px"
	 width="33.404px" height="26.411px" viewBox="0 0 33.404 26.411" enable-background="new 0 0 33.404 26.411" xml:space="preserve">
<g id="Корзина_9_">
	<path fill="none" stroke="#000000" stroke-width="0.8518" stroke-miterlimit="10" d="M0,0.426c0,0,4.154,0,5.945,0
		c1.793,0,3.85,1.871,3.85,5.732c0,3.86,0,1.998,0,6.549c0,4.55,2.426,8.162,7.869,8.162c3.563,0,6.844,0,9.326,0
		c5.428,0,5.977-3.219,5.977-6.666c0-1.379,0.012-0.92,0.012-2.782c0-1.412-0.578-2.084-1.917-2.084"/>
	<path d="M14.758,24.35c0,1.141-0.926,2.062-2.063,2.062s-2.064-0.921-2.064-2.062c0-1.137,0.928-2.059,2.064-2.059
		S14.758,23.213,14.758,24.35z"/>
	<circle cx="29.667" cy="24.35" r="2.062"/>
</g>
</svg>
