<?xml version="1.0" encoding="utf-8"?>
<!-- Generator: Adobe Illustrator 16.0.0, SVG Export Plug-In . SVG Version: 6.00 Build 0)  -->
<!DOCTYPE svg PUBLIC "-//W3C//DTD SVG 1.1//EN" "http://www.w3.org/Graphics/SVG/1.1/DTD/svg11.dtd">
<svg version="1.1" id="Слой_1" xmlns="http://www.w3.org/2000/svg" xmlns:xlink="http://www.w3.org/1999/xlink" x="0px" y="0px"
	 width="38.232px" height="30.254px" viewBox="0 0 38.232 30.254" enable-background="new 0 0 38.232 30.254" xml:space="preserve">
<g>
	<g>
		<polyline fill="none" stroke="#231F20" stroke-linecap="round" stroke-linejoin="round" stroke-miterlimit="10" points="
			23.105,0.5 23.105,9.809 31.748,9.809 		"/>
		<path fill="none" stroke="#231F20" stroke-miterlimit="10" d="M4.49,15.792V3.17c0-1.152,3.771-2.67,4.957-2.67h13.731
			l9.234,8.504v6.788"/>
		<path fill="none" stroke="#231F20" stroke-miterlimit="10" d="M32.413,22.44v3.828c0,1.155-2.402,3.485-3.583,3.485H9.447
			c-1.186,0-4.957-2.33-4.957-3.485V22.44"/>
	</g>
	<path fill="none" stroke="#231F20" stroke-miterlimit="10" d="M37.732,27.094h-5.319v-4.061L4.49,23.088v4.006H0.5V13.629
		c0-1.487,0.023-1.161,1.548-1.161H4.49v4.258l27.923,0.058v-4.315h3.593c1.526,0,1.727-0.326,1.727,1.161V27.094z"/>
	<ellipse fill="none" stroke="#231F20" stroke-miterlimit="10" cx="35.659" cy="14.248" rx="1.444" ry="1.406"/>
</g>
</svg>
