<?xml version="1.0" encoding="utf-8"?>
<!-- Generator: Adobe Illustrator 16.0.0, SVG Export Plug-In . SVG Version: 6.00 Build 0)  -->
<!DOCTYPE svg PUBLIC "-//W3C//DTD SVG 1.1//EN" "http://www.w3.org/Graphics/SVG/1.1/DTD/svg11.dtd">
<svg version="1.1" id="Слой_1" xmlns="http://www.w3.org/2000/svg" xmlns:xlink="http://www.w3.org/1999/xlink" x="0px" y="0px"
	 width="19.621px" height="30.794px" viewBox="0 0 19.621 30.794" enable-background="new 0 0 19.621 30.794" xml:space="preserve">
<g id="Телефоны_4_">
	<g>
		<path fill="none" d="M19.121,27.294c0,1.65-1.35,3-3,3H3.5c-1.65,0-3-1.35-3-3V3.5c0-1.65,1.35-3,3-3h12.621c1.65,0,3,1.35,3,3
			V27.294z"/>
		<path fill="none" stroke="#000000" stroke-linecap="round" stroke-miterlimit="10" d="M19.121,27.294c0,1.65-1.35,3-3,3H3.5
			c-1.65,0-3-1.35-3-3V3.5c0-1.65,1.35-3,3-3h12.621c1.65,0,3,1.35,3,3V27.294z"/>
	</g>
	<g>
		<circle fill="none" cx="9.938" cy="26.47" r="1.566"/>
		<circle fill="none" stroke="#000000" stroke-linecap="round" stroke-miterlimit="10" cx="9.938" cy="26.47" r="1.566"/>
	</g>
	<g>
		<line fill="none" stroke="#000000" stroke-linecap="round" stroke-miterlimit="10" x1="5.184" y1="3.21" x2="14.493" y2="3.21"/>
		<line fill="none" x1="5.184" y1="3.21" x2="14.493" y2="3.21"/>
	</g>
</g>
</svg>
