<?xml version="1.0" encoding="utf-8"?>
<!-- Generator: Adobe Illustrator 16.0.0, SVG Export Plug-In . SVG Version: 6.00 Build 0)  -->
<!DOCTYPE svg PUBLIC "-//W3C//DTD SVG 1.1//EN" "http://www.w3.org/Graphics/SVG/1.1/DTD/svg11.dtd">
<svg version="1.1" id="Слой_1" xmlns="http://www.w3.org/2000/svg" xmlns:xlink="http://www.w3.org/1999/xlink" x="0px" y="0px"
	 width="33px" height="28px" viewBox="0 -4.518 33 28" enable-background="new 0 -4.518 33 28" xml:space="preserve">
<path fill="none" stroke="#000000" stroke-width="1.008" stroke-linecap="round" stroke-linejoin="round" stroke-miterlimit="10" d="
	M7.887,13.09c0,0,0-11.554,0-13.109c0-2.818,0.804-3.995,4.057-3.995c2.005,0,13.974,0,13.974,0L32,0.314v11.562"/>
<polyline fill="none" stroke="#000000" stroke-width="1.008" stroke-linecap="round" stroke-linejoin="round" stroke-miterlimit="10" points="
	25.913,-4.014 25.913,0.394 32,0.394 "/>
<polygon fill="none" stroke="#000000" stroke-width="1.008" stroke-linecap="round" stroke-linejoin="round" stroke-miterlimit="10" points="
	31.855,17.464 26.872,8.964 21.888,17.464 24.79,17.464 24.79,22.931 28.956,22.931 28.956,17.464 "/>
<line fill="none" stroke="#000000" stroke-width="1.008" stroke-linecap="round" stroke-linejoin="round" stroke-miterlimit="10" x1="1" y1="16.401" x2="5.807" y2="22.986"/>
<line fill="none" stroke="#000000" stroke-width="1.008" stroke-linecap="round" stroke-linejoin="round" stroke-miterlimit="10" x1="5.567" y1="16.401" x2="1" y2="22.986"/>
<polyline fill="none" stroke="#000000" stroke-width="1.008" stroke-linecap="round" stroke-linejoin="round" stroke-miterlimit="10" points="
	8.609,16.401 8.609,22.937 12.094,22.937 "/>
<path fill="none" stroke="#000000" stroke-width="1.008" stroke-linecap="round" stroke-linejoin="round" stroke-miterlimit="10" d="
	M18.112,17.021c-0.83-0.531-3.892-1.103-4.134,1.068c-0.239,2.165,4.242,1.165,4.367,3.244c0.09,1.66-2.738,2.168-4.367,1.063"/>
</svg>
